Bodoni-16-Fatface.ufo
<glyph name="numbersign" format="2">
  <advance width="1270"/>
  <unicode hex="0023"/>
  <outline>
    <contour>
      <point x="60" y="516" type="line"/>
      <point x="1151" y="516" type="line"/>
      <point x="1151" y="489" type="line"/>
      <point x="60" y="489" type="line"/>
    </contour>
    <contour>
      <point x="120" y="1042" type="line"/>
      <point x="1211" y="1042" type="line"/>
      <point x="1211" y="1015" type="line"/>
      <point x="120" y="1015" type="line"/>
    </contour>
    <contour>
      <point x="904" y="1508" type="line"/>
      <point x="931" y="1510" type="line"/>
      <point x="731" y="-10" type="line"/>
      <point x="704" y="-12" type="line"/>
    </contour>
    <contour>
      <point x="520" y="1510" type="line"/>
      <point x="547" y="1510" type="line"/>
      <point x="347" y="-10" type="line"/>
      <point x="320" y="-10" type="line"/>
    </contour>
  </outline>
</glyph>
<glyph name="dollar" format="2">
  <advance width="1269"/>
  <unicode hex="0024"/>
  <outline>
    <contour>
      <point x="638" y="1660" type="line"/>
      <point x="672" y="1660" type="line"/>
      <point x="672" y="-160" type="line"/>
      <point x="638" y="-160" type="line"/>
    </contour>
    <contour>
      <point x="499" y="1660" type="line"/>
      <point x="533" y="1660" type="line"/>
      <point x="533" y="-160" type="line"/>
      <point x="499" y="-160" type="line"/>
    </contour>
    <contour>
      <point x="1033" y="1315" type="curve"/>
      <point x="974" y="1412"/>
      <point x="810" y="1486"/>
      <point x="628" y="1486" type="curve" smooth="yes"/>
      <point x="496" y="1486"/>
      <point x="380" y="1422"/>
      <point x="380" y="1297" type="curve" smooth="yes"/>
      <point x="380" y="973"/>
      <point x="1190" y="1060"/>
      <point x="1190" y="460" type="curve" smooth="yes"/>
      <point x="1190" y="180"/>
      <point x="972" y="-30"/>
      <point x="630" y="-30" type="curve" smooth="yes"/>
      <point x="238" y="-30"/>
      <point x="50" y="160"/>
      <point x="50" y="330" type="curve" smooth="yes"/>
      <point x="50" y="462"/>
      <point x="132" y="554"/>
      <point x="260" y="554" type="curve" smooth="yes"/>
      <point x="360" y="554"/>
      <point x="448" y="470"/>
      <point x="448" y="342" type="curve" smooth="yes"/>
      <point x="448" y="222"/>
      <point x="327" y="172"/>
      <point x="239" y="172" type="curve" smooth="yes"/>
      <point x="186" y="172"/>
      <point x="136" y="194"/>
      <point x="117" y="228" type="curve"/>
      <point x="177" y="122"/>
      <point x="324" y="1"/>
      <point x="610" y="1" type="curve" smooth="yes"/>
      <point x="822" y="1"/>
      <point x="910" y="98"/>
      <point x="910" y="243" type="curve" smooth="yes"/>
      <point x="910" y="607"/>
      <point x="100" y="450"/>
      <point x="100" y="1090" type="curve" smooth="yes"/>
      <point x="100" y="1350"/>
      <point x="372" y="1520"/>
      <point x="614" y="1520" type="curve" smooth="yes"/>
      <point x="850" y="1520"/>
      <point x="1110" y="1412"/>
      <point x="1110" y="1210" type="curve" smooth="yes"/>
      <point x="1110" y="1078"/>
      <point x="1038" y="1006"/>
      <point x="910" y="1006" type="curve" smooth="yes"/>
      <point x="810" y="1006"/>
      <point x="722" y="1066"/>
      <point x="722" y="1188" type="curve" smooth="yes"/>
      <point x="722" y="1302"/>
      <point x="811" y="1368"/>
      <point x="899" y="1368" type="curve" smooth="yes"/>
      <point x="942" y="1368"/>
      <point x="993" y="1355"/>
    </contour>
  </outline>
</glyph>
<glyph name="ampersand" format="2">
  <advance width="1837"/>
  <unicode hex="0026"/>
  <outline>
    <contour>
      <point x="924" y="982" type="curve"/>
      <point x="911" y="1002" type="line"/>
      <point x="929" y="1020"/>
      <point x="962" y="1040"/>
      <point x="962" y="1290" type="curve" smooth="yes"/>
      <point x="962" y="1415"/>
      <point x="942" y="1496"/>
      <point x="868" y="1496" type="curve" smooth="yes"/>
      <point x="804" y="1496"/>
      <point x="772" y="1418"/>
      <point x="772" y="1340" type="curve" smooth="yes"/>
      <point x="772" y="1250"/>
      <point x="842" y="1108"/>
      <point x="928" y="980" type="curve" smooth="yes"/>
      <point x="1555" y="27" type="line"/>
      <point x="1798" y="27" type="line"/>
      <point x="1798" y="0" type="line"/>
      <point x="1090" y="0" type="line"/>
      <point x="428" y="980" type="line" smooth="yes"/>
      <point x="376" y="1056"/>
      <point x="336" y="1156"/>
      <point x="336" y="1226" type="curve" smooth="yes"/>
      <point x="336" y="1406"/>
      <point x="546" y="1520"/>
      <point x="878" y="1520" type="curve" smooth="yes"/>
      <point x="1192" y="1520"/>
      <point x="1370" y="1434"/>
      <point x="1370" y="1294" type="curve" smooth="yes"/>
      <point x="1370" y="1140"/>
      <point x="1166" y="1036"/>
    </contour>
    <contour>
      <point x="523" y="845" type="curve"/>
      <point x="538" y="825" type="line"/>
      <point x="518" y="812"/>
      <point x="501" y="762"/>
      <point x="501" y="659" type="curve" smooth="yes"/>
      <point x="501" y="386"/>
      <point x="606" y="72"/>
      <point x="858" y="72" type="curve" smooth="yes"/>
      <point x="1152" y="72"/>
      <point x="1455" y="441"/>
      <point x="1500" y="914" type="curve"/>
      <point x="1528" y="914" type="line"/>
      <point x="1485" y="473"/>
      <point x="1204" y="-20"/>
      <point x="598" y="-20" type="curve" smooth="yes"/>
      <point x="232" y="-20"/>
      <point x="75" y="154"/>
      <point x="75" y="360" type="curve" smooth="yes"/>
      <point x="75" y="697"/>
      <point x="426" y="803"/>
    </contour>
    <contour>
      <point x="1248" y="920" type="line"/>
      <point x="1728" y="920" type="line"/>
      <point x="1728" y="893" type="line"/>
      <point x="1248" y="893" type="line"/>
    </contour>
  </outline>
</glyph>
<glyph name="comma" format="2">
  <advance width="669"/>
  <unicode hex="002C"/>
  <outline>
    <contour>
      <point x="80" y="218" type="curve" smooth="yes"/>
      <point x="80" y="344"/>
      <point x="198" y="456"/>
      <point x="334" y="456" type="curve" smooth="yes"/>
      <point x="472" y="456"/>
      <point x="594" y="334"/>
      <point x="594" y="128" type="curve" smooth="yes"/>
      <point x="594" y="-132"/>
      <point x="376" y="-312"/>
      <point x="76" y="-312" type="curve"/>
      <point x="76" y="-284" type="line"/>
      <point x="341" y="-284"/>
      <point x="592" y="-123"/>
      <point x="564" y="179" type="curve"/>
      <point x="534" y="68"/>
      <point x="426" y="-20"/>
      <point x="311" y="-20" type="curve" smooth="yes"/>
      <point x="178" y="-20"/>
      <point x="80" y="92"/>
    </contour>
  </outline>
</glyph>
<glyph name="zero" format="2">
  <advance width="1399"/>
  <unicode hex="0030"/>
  <outline>
    <contour>
      <point x="700" y="-20" type="curve" smooth="yes"/>
      <point x="334" y="-20"/>
      <point x="80" y="304"/>
      <point x="80" y="750" type="curve" smooth="yes"/>
      <point x="80" y="1196"/>
      <point x="354" y="1520"/>
      <point x="700" y="1520" type="curve" smooth="yes"/>
      <point x="1046" y="1520"/>
      <point x="1320" y="1196"/>
      <point x="1320" y="750" type="curve" smooth="yes"/>
      <point x="1320" y="304"/>
      <point x="1066" y="-20"/>
    </contour>
    <contour>
      <point x="700" y="1496" type="curve" smooth="yes"/>
      <point x="572" y="1496"/>
      <point x="550" y="1214"/>
      <point x="550" y="750" type="curve" smooth="yes"/>
      <point x="550" y="286"/>
      <point x="552" y="4"/>
      <point x="700" y="4" type="curve" smooth="yes"/>
      <point x="848" y="4"/>
      <point x="850" y="286"/>
      <point x="850" y="750" type="curve" smooth="yes"/>
      <point x="850" y="1214"/>
      <point x="848" y="1496"/>
    </contour>
  </outline>
</glyph>
<glyph name="two" format="2">
  <advance width="1299"/>
  <unicode hex="0032"/>
  <outline>
    <contour>
      <point x="1230" y="0" type="line"/>
      <point x="80" y="0" type="line"/>
      <point x="80" y="270" type="line"/>
      <point x="486" y="530" type="line" smooth="yes"/>
      <point x="656" y="640"/>
      <point x="748" y="772"/>
      <point x="748" y="1020" type="curve" smooth="yes"/>
      <point x="748" y="1288"/>
      <point x="629" y="1431"/>
      <point x="473" y="1431" type="curve" smooth="yes"/>
      <point x="303" y="1431"/>
      <point x="138" y="1295"/>
      <point x="133" y="1113" type="curve"/>
      <point x="158" y="1206"/>
      <point x="250" y="1284"/>
      <point x="351" y="1284" type="curve" smooth="yes"/>
      <point x="496" y="1284"/>
      <point x="596" y="1182"/>
      <point x="596" y="1052" type="curve" smooth="yes"/>
      <point x="596" y="912"/>
      <point x="460" y="814"/>
      <point x="330" y="814" type="curve" smooth="yes"/>
      <point x="200" y="814"/>
      <point x="98" y="914"/>
      <point x="98" y="1098" type="curve" smooth="yes"/>
      <point x="98" y="1332"/>
      <point x="316" y="1520"/>
      <point x="650" y="1520" type="curve" smooth="yes"/>
      <point x="992" y="1520"/>
      <point x="1188" y="1360"/>
      <point x="1188" y="1140" type="curve" smooth="yes"/>
      <point x="1188" y="880"/>
      <point x="934" y="766"/>
      <point x="746" y="650" type="curve" smooth="yes"/>
      <point x="374" y="420" type="line"/>
      <point x="1202" y="420" type="line"/>
      <point x="1202" y="570" type="line"/>
      <point x="1230" y="570" type="line"/>
    </contour>
  </outline>
</glyph>
<glyph name="three" format="2">
  <advance width="1241"/>
  <unicode hex="0033"/>
  <outline>
    <contour>
      <point x="1162" y="420" type="curve" smooth="yes"/>
      <point x="1162" y="140"/>
      <point x="884" y="-20"/>
      <point x="562" y="-20" type="curve" smooth="yes"/>
      <point x="218" y="-20"/>
      <point x="50" y="188"/>
      <point x="50" y="372" type="curve" smooth="yes"/>
      <point x="50" y="514"/>
      <point x="150" y="612"/>
      <point x="280" y="612" type="curve" smooth="yes"/>
      <point x="400" y="612"/>
      <point x="488" y="524"/>
      <point x="488" y="392" type="curve" smooth="yes"/>
      <point x="488" y="268"/>
      <point x="382" y="180"/>
      <point x="264" y="180" type="curve" smooth="yes"/>
      <point x="195" y="180"/>
      <point x="151" y="207"/>
      <point x="130" y="229" type="curve"/>
      <point x="188" y="123"/>
      <point x="308" y="29"/>
      <point x="489" y="29" type="curve" smooth="yes"/>
      <point x="687" y="29"/>
      <point x="720" y="172"/>
      <point x="720" y="420" type="curve" smooth="yes"/>
      <point x="720" y="628"/>
      <point x="664" y="797"/>
      <point x="426" y="797" type="curve"/>
      <point x="426" y="817" type="line"/>
      <point x="948" y="817"/>
      <point x="1162" y="660"/>
    </contour>
    <contour>
      <point x="426" y="804" type="curve"/>
      <point x="426" y="824" type="line"/>
      <point x="644" y="824"/>
      <point x="660" y="1034"/>
      <point x="660" y="1182" type="curve" smooth="yes"/>
      <point x="660" y="1350"/>
      <point x="617" y="1473"/>
      <point x="499" y="1473" type="curve" smooth="yes"/>
      <point x="395" y="1473"/>
      <point x="301" y="1418"/>
      <point x="251" y="1367" type="curve"/>
      <point x="274" y="1389"/>
      <point x="308" y="1398"/>
      <point x="344" y="1398" type="curve" smooth="yes"/>
      <point x="442" y="1398"/>
      <point x="538" y="1318"/>
      <point x="538" y="1198" type="curve" smooth="yes"/>
      <point x="538" y="1068"/>
      <point x="434" y="976"/>
      <point x="324" y="976" type="curve" smooth="yes"/>
      <point x="204" y="976"/>
      <point x="110" y="1048"/>
      <point x="110" y="1180" type="curve" smooth="yes"/>
      <point x="110" y="1384"/>
      <point x="358" y="1518"/>
      <point x="562" y="1518" type="curve" smooth="yes"/>
      <point x="864" y="1518"/>
      <point x="1102" y="1382"/>
      <point x="1102" y="1162" type="curve" smooth="yes"/>
      <point x="1102" y="962"/>
      <point x="928" y="804"/>
    </contour>
  </outline>
</glyph>
<glyph name="four" format="2">
  <advance width="1369"/>
  <unicode hex="0034"/>
  <outline>
    <contour>
      <point x="1280" y="27" type="line"/>
      <point x="1280" y="0" type="line"/>
      <point x="510" y="0" type="line"/>
      <point x="510" y="27" type="line"/>
      <point x="700" y="27" type="line"/>
      <point x="700" y="1266" type="line"/>
      <point x="123" y="444" type="line"/>
      <point x="1350" y="444" type="line"/>
      <point x="1350" y="416" type="line"/>
      <point x="70" y="416" type="line"/>
      <point x="830" y="1500" type="line"/>
      <point x="1130" y="1500" type="line"/>
      <point x="1130" y="27" type="line"/>
    </contour>
  </outline>
</glyph>
<glyph name="five" format="2">
  <advance width="1139"/>
  <unicode hex="0035"/>
  <outline>
    <contour>
      <point x="1010" y="1080" type="line"/>
      <point x="121" y="1080" type="line"/>
      <point x="121" y="674" type="line"/>
      <point x="94" y="674" type="line"/>
      <point x="94" y="1500" type="line"/>
      <point x="982" y="1500" type="line"/>
      <point x="982" y="1610" type="line"/>
      <point x="1010" y="1610" type="line"/>
    </contour>
    <contour>
      <point x="114" y="123" type="curve"/>
      <point x="141" y="68"/>
      <point x="256" y="17"/>
      <point x="359" y="17" type="curve" smooth="yes"/>
      <point x="537" y="17"/>
      <point x="630" y="162"/>
      <point x="630" y="430" type="curve" smooth="yes"/>
      <point x="630" y="738"/>
      <point x="565" y="832"/>
      <point x="407" y="832" type="curve" smooth="yes"/>
      <point x="288" y="832"/>
      <point x="181" y="769"/>
      <point x="131" y="674" type="curve"/>
      <point x="107" y="674" type="line"/>
      <point x="159" y="788"/>
      <point x="282" y="880"/>
      <point x="504" y="880" type="curve" smooth="yes"/>
      <point x="846" y="880"/>
      <point x="1080" y="730"/>
      <point x="1080" y="430" type="curve" smooth="yes"/>
      <point x="1080" y="150"/>
      <point x="794" y="-20"/>
      <point x="432" y="-20" type="curve" smooth="yes"/>
      <point x="208" y="-20"/>
      <point x="-20" y="74"/>
      <point x="-20" y="298" type="curve" smooth="yes"/>
      <point x="-20" y="440"/>
      <point x="84" y="542"/>
      <point x="214" y="542" type="curve" smooth="yes"/>
      <point x="344" y="542"/>
      <point x="448" y="460"/>
      <point x="448" y="320" type="curve" smooth="yes"/>
      <point x="448" y="190"/>
      <point x="332" y="80"/>
      <point x="207" y="80" type="curve" smooth="yes"/>
      <point x="164" y="80"/>
      <point x="136" y="98"/>
    </contour>
  </outline>
</glyph>
<glyph name="six" format="2">
  <advance width="1319"/>
  <unicode hex="0036"/>
  <outline>
    <contour>
      <point x="800" y="500" type="curve" smooth="yes"/>
      <point x="800" y="868"/>
      <point x="759" y="934"/>
      <point x="681" y="934" type="curve" smooth="yes"/>
      <point x="602" y="934"/>
      <point x="560" y="860"/>
      <point x="560" y="560" type="curve"/>
      <point x="541" y="560" type="line"/>
      <point x="541" y="828"/>
      <point x="548" y="990"/>
      <point x="762" y="990" type="curve" smooth="yes"/>
      <point x="1004" y="990"/>
      <point x="1260" y="840"/>
      <point x="1260" y="500" type="curve" smooth="yes"/>
      <point x="1260" y="200"/>
      <point x="1030" y="-20"/>
      <point x="688" y="-20" type="curve" smooth="yes"/>
      <point x="346" y="-20"/>
      <point x="100" y="200"/>
      <point x="100" y="620" type="curve" smooth="yes"/>
      <point x="100" y="1106"/>
      <point x="504" y="1520"/>
      <point x="1110" y="1520" type="curve"/>
      <point x="1110" y="1496" type="line"/>
      <point x="742" y="1496"/>
      <point x="553" y="1091"/>
      <point x="553" y="719" type="curve"/>
      <point x="560" y="560" type="line"/>
      <point x="560" y="192"/>
      <point x="596" y="8"/>
      <point x="694" y="8" type="curve" smooth="yes"/>
      <point x="792" y="8"/>
      <point x="800" y="172"/>
    </contour>
  </outline>
</glyph>
<glyph name="seven" format="2">
  <advance width="1149"/>
  <unicode hex="0037"/>
  <outline>
    <contour>
      <point x="256" y="212" type="curve" smooth="yes"/>
      <point x="256" y="370"/>
      <point x="471" y="542"/>
      <point x="630" y="756" type="curve" smooth="yes"/>
      <point x="692" y="838"/>
      <point x="732" y="896"/>
      <point x="836" y="1070" type="curve"/>
      <point x="107" y="1070" type="line"/>
      <point x="107" y="920" type="line"/>
      <point x="80" y="920" type="line"/>
      <point x="80" y="1500" type="line"/>
      <point x="1130" y="1500" type="line"/>
      <point x="1130" y="1500"/>
      <point x="862" y="1024"/>
      <point x="688" y="776" type="curve" smooth="yes"/>
      <point x="582" y="624"/>
      <point x="566" y="605"/>
      <point x="566" y="544" type="curve" smooth="yes"/>
      <point x="566" y="438"/>
      <point x="756" y="408"/>
      <point x="756" y="216" type="curve" smooth="yes"/>
      <point x="756" y="82"/>
      <point x="656" y="-20"/>
      <point x="508" y="-20" type="curve" smooth="yes"/>
      <point x="370" y="-20"/>
      <point x="256" y="54"/>
    </contour>
  </outline>
</glyph>
<glyph name="less" format="2">
  <advance width="1119"/>
  <unicode hex="003C"/>
  <outline>
    <contour>
      <point x="120" y="764" type="line"/>
      <point x="120" y="791" type="line"/>
      <point x="1000" y="1206" type="line"/>
      <point x="1000" y="1179" type="line"/>
    </contour>
    <contour>
      <point x="120" y="759" type="line"/>
      <point x="120" y="787" type="line"/>
      <point x="1000" y="371" type="line"/>
      <point x="1000" y="344" type="line"/>
    </contour>
  </outline>
</glyph>
<glyph name="question" format="2">
  <advance width="1239"/>
  <unicode hex="003F"/>
  <outline>
    <contour>
      <point x="500" y="736" type="line"/>
      <point x="654" y="798"/>
      <point x="698" y="934"/>
      <point x="698" y="1120" type="curve" smooth="yes"/>
      <point x="698" y="1308"/>
      <point x="677" y="1474"/>
      <point x="519" y="1474" type="curve" smooth="yes"/>
      <point x="366" y="1474"/>
      <point x="221" y="1357"/>
      <point x="189" y="1264" type="curve"/>
      <point x="200" y="1280"/>
      <point x="252" y="1320"/>
      <point x="328" y="1320" type="curve" smooth="yes"/>
      <point x="446" y="1320"/>
      <point x="548" y="1250"/>
      <point x="548" y="1130" type="curve" smooth="yes"/>
      <point x="548" y="1000"/>
      <point x="464" y="918"/>
      <point x="334" y="918" type="curve" smooth="yes"/>
      <point x="194" y="918"/>
      <point x="120" y="1010"/>
      <point x="120" y="1142" type="curve" smooth="yes"/>
      <point x="120" y="1326"/>
      <point x="308" y="1520"/>
      <point x="612" y="1520" type="curve" smooth="yes"/>
      <point x="934" y="1520"/>
      <point x="1140" y="1360"/>
      <point x="1140" y="1120" type="curve" smooth="yes"/>
      <point x="1140" y="890"/>
      <point x="910" y="736"/>
      <point x="528" y="718" type="curve"/>
      <point x="528" y="558" type="line"/>
      <point x="500" y="558" type="line"/>
    </contour>
    <component base="period" xOffset="258"/>
  </outline>
</glyph>
<glyph name="at" format="2">
  <advance width="2019"/>
  <unicode hex="0040"/>
  <outline>
    <contour>
      <point x="1105" y="729" type="curve" smooth="yes"/>
      <point x="1105" y="405"/>
      <point x="975" y="140"/>
      <point x="715" y="140" type="curve" smooth="yes"/>
      <point x="530" y="140"/>
      <point x="408" y="252"/>
      <point x="408" y="460" type="curve" smooth="yes"/>
      <point x="408" y="760"/>
      <point x="616" y="1058"/>
      <point x="874" y="1058" type="curve" smooth="yes"/>
      <point x="1069" y="1058"/>
      <point x="1105" y="893"/>
    </contour>
    <contour>
      <point x="1078" y="692" type="curve" smooth="yes"/>
      <point x="1078" y="776"/>
      <point x="1075" y="915"/>
      <point x="1028" y="915" type="curve" smooth="yes"/>
      <point x="962" y="915"/>
      <point x="850" y="739"/>
      <point x="850" y="491" type="curve" smooth="yes"/>
      <point x="850" y="357"/>
      <point x="880" y="285"/>
      <point x="928" y="285" type="curve" smooth="yes"/>
      <point x="990" y="285"/>
      <point x="1078" y="463"/>
    </contour>
    <contour>
      <point x="1040" y="420" type="curve" smooth="yes"/>
      <point x="1184" y="1040" type="line"/>
      <point x="1604" y="1040" type="line"/>
      <point x="1455" y="400" type="line" smooth="yes"/>
      <point x="1433" y="302"/>
      <point x="1406" y="205"/>
      <point x="1490" y="205" type="curve" smooth="yes"/>
      <point x="1671" y="205"/>
      <point x="1883" y="450"/>
      <point x="1883" y="802" type="curve" smooth="yes"/>
      <point x="1883" y="1156"/>
      <point x="1663" y="1553"/>
      <point x="1169" y="1553" type="curve" smooth="yes"/>
      <point x="603" y="1553"/>
      <point x="137" y="1034"/>
      <point x="137" y="422" type="curve" smooth="yes"/>
      <point x="137" y="-193"/>
      <point x="485" y="-401"/>
      <point x="838" y="-401" type="curve" smooth="yes"/>
      <point x="1159" y="-401"/>
      <point x="1381" y="-306"/>
      <point x="1552" y="-111" type="curve"/>
      <point x="1570" y="-128" type="line"/>
      <point x="1402" y="-324"/>
      <point x="1164" y="-428"/>
      <point x="838" y="-428" type="curve" smooth="yes"/>
      <point x="472" y="-428"/>
      <point x="110" y="-206"/>
      <point x="110" y="422" type="curve" smooth="yes"/>
      <point x="110" y="1048"/>
      <point x="584" y="1580"/>
      <point x="1170" y="1580" type="curve" smooth="yes"/>
      <point x="1676" y="1580"/>
      <point x="1910" y="1168"/>
      <point x="1910" y="802" type="curve" smooth="yes"/>
      <point x="1910" y="462"/>
      <point x="1724" y="136"/>
      <point x="1322" y="136" type="curve" smooth="yes"/>
      <point x="1024" y="136"/>
      <point x="1012" y="296"/>
    </contour>
  </outline>
</glyph>
<glyph name="A" format="2">
  <advance width="1659"/>
  <unicode hex="0041"/>
  <outline>
    <contour>
      <point x="30" y="27" type="line"/>
      <point x="470" y="27" type="line"/>
      <point x="470" y="0" type="line"/>
      <point x="30" y="0" type="line"/>
    </contour>
    <contour>
      <point x="850" y="27" type="line"/>
      <point x="1630" y="27" type="line"/>
      <point x="1630" y="0" type="line"/>
      <point x="850" y="0" type="line"/>
    </contour>
    <contour>
      <point x="379" y="504" type="line"/>
      <point x="1030" y="504" type="line"/>
      <point x="1030" y="477" type="line"/>
      <point x="379" y="477" type="line"/>
    </contour>
    <contour>
      <point x="625" y="1126" type="line"/>
      <point x="228" y="0" type="line"/>
      <point x="193" y="0" type="line"/>
      <point x="735" y="1530" type="line"/>
      <point x="960" y="1530" type="line"/>
      <point x="1490" y="0" type="line"/>
      <point x="990" y="0" type="line"/>
    </contour>
  </outline>
</glyph>
<glyph name="C" format="2">
  <advance width="3010"/>
  <unicode hex="0043"/>
  <outline>
    <contour>
      <point x="2763" y="3072" type="line"/>
      <point x="2806" y="3072" type="line"/>
      <point x="2806" y="2109" type="line"/>
      <point x="2632" y="2366"/>
      <point x="2483" y="2649"/>
      <point x="2264" y="2873" type="curve"/>
    </contour>
    <contour>
      <point x="2806" y="2109" type="curve"/>
      <point x="2747" y="2109" type="line"/>
      <point x="2438" y="2657"/>
      <point x="2199" y="3025"/>
      <point x="1761" y="3025" type="curve" smooth="yes"/>
      <point x="1253" y="3025"/>
      <point x="1126" y="2281"/>
      <point x="1126" y="1536" type="curve" smooth="yes"/>
      <point x="1126" y="791"/>
      <point x="1253" y="47"/>
      <point x="1761" y="47" type="curve" smooth="yes"/>
      <point x="2310" y="47"/>
      <point x="2495" y="449"/>
      <point x="2789" y="963" type="curve"/>
      <point x="2847" y="963" type="line"/>
      <point x="2601" y="377"/>
      <point x="2306" y="-41"/>
      <point x="1720" y="-41" type="curve" smooth="yes"/>
      <point x="725" y="-41"/>
      <point x="164" y="623"/>
      <point x="164" y="1536" type="curve" smooth="yes"/>
      <point x="164" y="2449"/>
      <point x="725" y="3113"/>
      <point x="1720" y="3113" type="curve" smooth="yes"/>
      <point x="2244" y="3113"/>
      <point x="2519" y="2695"/>
    </contour>
    <contour>
      <point x="2847" y="963" type="curve"/>
      <point x="2847" y="0" type="line"/>
      <point x="2803" y="0" type="line"/>
      <point x="2322" y="210" type="line"/>
      <point x="2545" y="446"/>
      <point x="2696" y="703"/>
    </contour>
  </outline>
</glyph>
<glyph name="D" format="2">
  <advance width="1629"/>
  <unicode hex="0044"/>
  <outline>
    <contour>
      <point x="210" y="1500" type="line"/>
      <point x="640" y="1500" type="line"/>
      <point x="640" y="0" type="line"/>
      <point x="210" y="0" type="line"/>
    </contour>
    <contour>
      <point x="750" y="0" type="curve" smooth="yes"/>
      <point x="30" y="0" type="line"/>
      <point x="30" y="27" type="line"/>
      <point x="750" y="27" type="line" smooth="yes"/>
      <point x="998" y="27"/>
      <point x="1080" y="326"/>
      <point x="1080" y="750" type="curve" smooth="yes"/>
      <point x="1080" y="1174"/>
      <point x="978" y="1473"/>
      <point x="750" y="1473" type="curve" smooth="yes"/>
      <point x="30" y="1473" type="line"/>
      <point x="30" y="1500" type="line"/>
      <point x="750" y="1500" type="line" smooth="yes"/>
      <point x="1256" y="1500"/>
      <point x="1550" y="1216"/>
      <point x="1550" y="750" type="curve" smooth="yes"/>
      <point x="1550" y="284"/>
      <point x="1236" y="0"/>
    </contour>
  </outline>
</glyph>
<glyph name="E" format="2">
  <advance width="2744"/>
  <unicode hex="0045"/>
  <outline>
    <contour>
      <point x="2566" y="922" type="curve"/>
      <point x="2621" y="922" type="line"/>
      <point x="2621" y="0" type="line"/>
      <point x="61" y="0" type="line"/>
      <point x="61" y="56" type="line"/>
      <point x="1516" y="56" type="line" smooth="yes"/>
      <point x="2077" y="56"/>
      <point x="2443" y="402"/>
    </contour>
    <contour>
      <point x="430" y="3072" type="line"/>
      <point x="1311" y="3072" type="line"/>
      <point x="1311" y="0" type="line"/>
      <point x="430" y="0" type="line"/>
    </contour>
    <contour>
      <point x="61" y="3072" type="line"/>
      <point x="2580" y="3072" type="line"/>
      <point x="2580" y="2232" type="line"/>
      <point x="2524" y="2232" type="line"/>
      <point x="2401" y="2670"/>
      <point x="2035" y="3016"/>
      <point x="1556" y="3016" type="curve" smooth="yes"/>
      <point x="61" y="3016" type="line"/>
    </contour>
    <contour>
      <point x="1950" y="1016" type="line"/>
      <point x="1827" y="1290"/>
      <point x="1585" y="1561"/>
      <point x="1352" y="1561" type="curve" smooth="yes"/>
      <point x="1106" y="1561" type="line"/>
      <point x="1106" y="1618" type="line"/>
      <point x="1352" y="1618" type="line" smooth="yes"/>
      <point x="1585" y="1618"/>
      <point x="1827" y="1868"/>
      <point x="1950" y="2142" type="curve"/>
      <point x="2007" y="2142" type="line"/>
      <point x="2007" y="1016" type="line"/>
    </contour>
  </outline>
</glyph>
<glyph name="F" format="2">
  <advance width="1279"/>
  <unicode hex="0046"/>
  <outline>
    <contour>
      <point x="30" y="1500" type="line"/>
      <point x="1220" y="1500" type="line"/>
      <point x="1220" y="1090" type="line"/>
      <point x="1192" y="1090" type="line"/>
      <point x="1132" y="1304"/>
      <point x="994" y="1473"/>
      <point x="780" y="1473" type="curve" smooth="yes"/>
      <point x="30" y="1473" type="line"/>
    </contour>
    <contour>
      <point x="30" y="27" type="line"/>
      <point x="840" y="27" type="line"/>
      <point x="840" y="0" type="line"/>
      <point x="30" y="0" type="line"/>
    </contour>
    <contour>
      <point x="210" y="1500" type="line"/>
      <point x="640" y="1500" type="line"/>
      <point x="640" y="0" type="line"/>
      <point x="210" y="0" type="line"/>
    </contour>
    <contour>
      <point x="933" y="456" type="line"/>
      <point x="873" y="590"/>
      <point x="784" y="732"/>
      <point x="650" y="732" type="curve" smooth="yes"/>
      <point x="520" y="732" type="line"/>
      <point x="520" y="760" type="line"/>
      <point x="650" y="760" type="line" smooth="yes"/>
      <point x="784" y="760"/>
      <point x="873" y="892"/>
      <point x="933" y="1026" type="curve"/>
      <point x="960" y="1026" type="line"/>
      <point x="960" y="456" type="line"/>
    </contour>
  </outline>
</glyph>
<glyph name="G" format="2">
  <advance width="1599"/>
  <unicode hex="0047"/>
  <outline>
    <contour>
      <point x="1450" y="1030" type="line"/>
      <point x="1390" y="1201"/>
      <point x="1241" y="1341"/>
      <point x="1145" y="1420" type="curve"/>
      <point x="1429" y="1500" type="line"/>
      <point x="1450" y="1500" type="line"/>
    </contour>
    <contour>
      <point x="840" y="584" type="line"/>
      <point x="1580" y="584" type="line"/>
      <point x="1580" y="556" type="line"/>
      <point x="840" y="556" type="line"/>
    </contour>
    <contour>
      <point x="1050" y="563" type="line"/>
      <point x="1500" y="563" type="line"/>
      <point x="1500" y="290" type="line"/>
      <point x="1300" y="144"/>
      <point x="1176" y="-20"/>
      <point x="850" y="-20" type="curve" smooth="yes"/>
      <point x="374" y="-20"/>
      <point x="80" y="264"/>
      <point x="80" y="750" type="curve" smooth="yes"/>
      <point x="80" y="1236"/>
      <point x="474" y="1520"/>
      <point x="880" y="1520" type="curve" smooth="yes"/>
      <point x="1136" y="1520"/>
      <point x="1415" y="1276"/>
      <point x="1450" y="1030" type="curve"/>
      <point x="1423" y="1030" type="line"/>
      <point x="1343" y="1214"/>
      <point x="1167" y="1477"/>
      <point x="917" y="1477" type="curve" smooth="yes"/>
      <point x="669" y="1477"/>
      <point x="550" y="1114"/>
      <point x="550" y="750" type="curve" smooth="yes"/>
      <point x="550" y="386"/>
      <point x="612" y="21"/>
      <point x="850" y="21" type="curve" smooth="yes"/>
      <point x="938" y="21"/>
      <point x="1010" y="126"/>
      <point x="1050" y="250" type="curve"/>
    </contour>
  </outline>
</glyph>
<glyph name="I" format="2">
  <advance width="1944"/>
  <unicode hex="0049"/>
  <outline>
    <contour>
      <point x="61" y="56" type="line"/>
      <point x="1884" y="56" type="line"/>
      <point x="1884" y="0" type="line"/>
      <point x="61" y="0" type="line"/>
    </contour>
    <contour>
      <point x="61" y="3072" type="line"/>
      <point x="1884" y="3072" type="line"/>
      <point x="1884" y="3016" type="line"/>
      <point x="61" y="3016" type="line"/>
    </contour>
    <contour>
      <point x="512" y="3072" type="line"/>
      <point x="1393" y="3072" type="line"/>
      <point x="1393" y="0" type="line"/>
      <point x="512" y="0" type="line"/>
    </contour>
  </outline>
</glyph>
<glyph name="J" format="2">
  <advance width="1281"/>
  <unicode hex="004A"/>
  <outline>
    <contour>
      <point x="362" y="1500" type="line"/>
      <point x="1252" y="1500" type="line"/>
      <point x="1252" y="1473" type="line"/>
      <point x="362" y="1473" type="line"/>
    </contour>
    <contour>
      <point x="622" y="1500" type="line"/>
      <point x="1052" y="1500" type="line"/>
      <point x="1052" y="340" type="line"/>
      <point x="932" y="100"/>
      <point x="794" y="-60"/>
      <point x="452" y="-60" type="curve" smooth="yes"/>
      <point x="198" y="-60"/>
      <point x="20" y="50"/>
      <point x="20" y="250" type="curve" smooth="yes"/>
      <point x="20" y="394"/>
      <point x="134" y="500"/>
      <point x="274" y="500" type="curve" smooth="yes"/>
      <point x="404" y="500"/>
      <point x="506" y="404"/>
      <point x="506" y="262" type="curve" smooth="yes"/>
      <point x="506" y="142"/>
      <point x="410" y="24"/>
      <point x="284" y="24" type="curve" smooth="yes"/>
      <point x="237" y="24"/>
      <point x="177" y="36"/>
      <point x="147" y="56" type="curve"/>
      <point x="205" y="-3"/>
      <point x="333" y="-30"/>
      <point x="436" y="-30" type="curve" smooth="yes"/>
      <point x="578" y="-30"/>
      <point x="622" y="100"/>
      <point x="622" y="380" type="curve" smooth="yes"/>
    </contour>
  </outline>
</glyph>
<glyph name="K" format="2">
  <advance width="1709"/>
  <unicode hex="004B"/>
  <outline>
    <contour>
      <point x="30" y="27" type="line"/>
      <point x="800" y="27" type="line"/>
      <point x="800" y="0" type="line"/>
      <point x="30" y="0" type="line"/>
    </contour>
    <contour>
      <point x="30" y="1500" type="line"/>
      <point x="840" y="1500" type="line"/>
      <point x="840" y="1473" type="line"/>
      <point x="30" y="1473" type="line"/>
    </contour>
    <contour>
      <point x="210" y="1500" type="line"/>
      <point x="640" y="1500" type="line"/>
      <point x="640" y="0" type="line"/>
      <point x="210" y="0" type="line"/>
    </contour>
    <contour>
      <point x="386" y="434" type="line"/>
      <point x="344" y="434" type="line"/>
      <point x="1372" y="1496" type="line"/>
      <point x="1415" y="1496" type="line"/>
    </contour>
    <contour>
      <point x="880" y="27" type="line"/>
      <point x="1700" y="27" type="line"/>
      <point x="1700" y="0" type="line"/>
      <point x="880" y="0" type="line"/>
    </contour>
    <contour>
      <point x="1610" y="1473" type="line"/>
      <point x="1130" y="1473" type="line"/>
      <point x="1130" y="1500" type="line"/>
      <point x="1610" y="1500" type="line"/>
    </contour>
    <contour>
      <point x="1544" y="0" type="line"/>
      <point x="1064" y="0" type="line"/>
      <point x="646" y="727" type="line"/>
      <point x="935" y="1031" type="line"/>
    </contour>
  </outline>
</glyph>
<glyph name="M" format="2">
  <advance width="3850"/>
  <unicode hex="004D"/>
  <outline>
    <contour>
      <point x="3789" y="3072" type="line"/>
      <point x="3789" y="3016" type="line"/>
      <point x="3502" y="3016" type="line"/>
      <point x="3502" y="0" type="line"/>
      <point x="2621" y="0" type="line"/>
      <point x="2621" y="3072" type="line"/>
    </contour>
    <contour>
      <point x="82" y="56" type="line"/>
      <point x="731" y="56" type="line"/>
      <point x="731" y="0" type="line"/>
      <point x="82" y="0" type="line"/>
    </contour>
    <contour>
      <point x="2294" y="56" type="line"/>
      <point x="3789" y="56" type="line"/>
      <point x="3789" y="0" type="line"/>
      <point x="2294" y="0" type="line"/>
    </contour>
    <contour>
      <point x="1953" y="1222" type="line"/>
      <point x="2588" y="3072" type="line"/>
      <point x="2650" y="3072" type="line"/>
      <point x="1584" y="-41" type="line"/>
      <point x="1520" y="-41" type="line"/>
      <point x="381" y="3072" type="line"/>
      <point x="1266" y="3072" type="line"/>
    </contour>
    <contour>
      <point x="371" y="3016" type="line"/>
      <point x="61" y="3016" type="line"/>
      <point x="61" y="3072" type="line"/>
      <point x="434" y="3072" type="line"/>
      <point x="434" y="0" type="line"/>
      <point x="371" y="0" type="line"/>
    </contour>
  </outline>
</glyph>
<glyph name="N" format="2">
  <advance width="1555"/>
  <unicode hex="004E"/>
  <outline>
    <contour>
      <point x="1286" y="1500" type="line"/>
      <point x="1316" y="1500" type="line"/>
      <point x="1316" y="-20" type="line"/>
      <point x="1269" y="-20" type="line"/>
      <point x="230" y="1500" type="line"/>
      <point x="740" y="1500" type="line"/>
      <point x="1286" y="714" type="line"/>
    </contour>
    <contour>
      <point x="1066" y="1500" type="line"/>
      <point x="1526" y="1500" type="line"/>
      <point x="1526" y="1473" type="line"/>
      <point x="1066" y="1473" type="line"/>
    </contour>
    <contour>
      <point x="30" y="27" type="line"/>
      <point x="493" y="27" type="line"/>
      <point x="493" y="0" type="line"/>
      <point x="30" y="0" type="line"/>
    </contour>
    <contour>
      <point x="236" y="1473" type="line"/>
      <point x="30" y="1473" type="line"/>
      <point x="30" y="1500" type="line"/>
      <point x="266" y="1500" type="line"/>
      <point x="266" y="0" type="line"/>
      <point x="236" y="0" type="line"/>
    </contour>
  </outline>
</glyph>
<glyph name="P" format="2">
  <advance width="1469"/>
  <unicode hex="0050"/>
  <outline>
    <contour>
      <point x="210" y="1500" type="line"/>
      <point x="640" y="1500" type="line"/>
      <point x="640" y="0" type="line"/>
      <point x="210" y="0" type="line"/>
    </contour>
    <contour>
      <point x="30" y="27" type="line"/>
      <point x="820" y="27" type="line"/>
      <point x="820" y="0" type="line"/>
      <point x="30" y="0" type="line"/>
    </contour>
    <contour>
      <point x="820" y="666" type="curve" smooth="yes"/>
      <point x="500" y="666" type="line"/>
      <point x="500" y="694" type="line"/>
      <point x="740" y="694" type="line" smooth="yes"/>
      <point x="892" y="694"/>
      <point x="940" y="902"/>
      <point x="940" y="1080" type="curve" smooth="yes"/>
      <point x="940" y="1258"/>
      <point x="892" y="1473"/>
      <point x="740" y="1473" type="curve" smooth="yes"/>
      <point x="30" y="1473" type="line"/>
      <point x="30" y="1500" type="line"/>
      <point x="820" y="1500" type="line" smooth="yes"/>
      <point x="1222" y="1500"/>
      <point x="1400" y="1340"/>
      <point x="1400" y="1080" type="curve" smooth="yes"/>
      <point x="1400" y="820"/>
      <point x="1222" y="666"/>
    </contour>
  </outline>
</glyph>
<glyph name="Q" format="2">
  <advance width="1599"/>
  <unicode hex="0051"/>
  <outline>
    <contour>
      <point x="800" y="-20" type="curve" smooth="yes"/>
      <point x="354" y="-20"/>
      <point x="80" y="304"/>
      <point x="80" y="750" type="curve" smooth="yes"/>
      <point x="80" y="1196"/>
      <point x="374" y="1520"/>
      <point x="800" y="1520" type="curve" smooth="yes"/>
      <point x="1226" y="1520"/>
      <point x="1520" y="1196"/>
      <point x="1520" y="750" type="curve" smooth="yes"/>
      <point x="1520" y="304"/>
      <point x="1246" y="-20"/>
    </contour>
    <contour>
      <point x="800" y="1496" type="curve" smooth="yes"/>
      <point x="612" y="1496"/>
      <point x="550" y="1214"/>
      <point x="550" y="750" type="curve" smooth="yes"/>
      <point x="550" y="286"/>
      <point x="592" y="4"/>
      <point x="800" y="4" type="curve" smooth="yes"/>
      <point x="1008" y="4"/>
      <point x="1050" y="286"/>
      <point x="1050" y="750" type="curve" smooth="yes"/>
      <point x="1050" y="1214"/>
      <point x="988" y="1496"/>
    </contour>
    <contour>
      <point x="1260" y="-473" type="curve"/>
      <point x="1260" y="-500" type="line"/>
      <point x="694" y="-500"/>
      <point x="560" y="-426"/>
      <point x="560" y="20" type="curve"/>
      <point x="718" y="-11"/>
      <point x="876" y="-11"/>
      <point x="1030" y="20" type="curve"/>
      <point x="1030" y="-344"/>
      <point x="1032" y="-473"/>
    </contour>
  </outline>
</glyph>
<glyph name="R" format="2">
  <advance width="1579"/>
  <unicode hex="0052"/>
  <outline>
    <contour>
      <point x="770" y="765" type="curve" smooth="yes"/>
      <point x="390" y="765" type="line"/>
      <point x="390" y="784" type="line"/>
      <point x="670" y="784" type="line" smooth="yes"/>
      <point x="862" y="784"/>
      <point x="950" y="872"/>
      <point x="950" y="1130" type="curve" smooth="yes"/>
      <point x="950" y="1388"/>
      <point x="862" y="1473"/>
      <point x="670" y="1473" type="curve" smooth="yes"/>
      <point x="30" y="1473" type="line"/>
      <point x="30" y="1500" type="line"/>
      <point x="770" y="1500" type="line" smooth="yes"/>
      <point x="1132" y="1500"/>
      <point x="1390" y="1390"/>
      <point x="1390" y="1130" type="curve" smooth="yes"/>
      <point x="1390" y="870"/>
      <point x="1152" y="765"/>
    </contour>
    <contour>
      <point x="30" y="27" type="line"/>
      <point x="820" y="27" type="line"/>
      <point x="820" y="0" type="line"/>
      <point x="30" y="0" type="line"/>
    </contour>
    <contour>
      <point x="210" y="1500" type="line"/>
      <point x="640" y="1500" type="line"/>
      <point x="640" y="0" type="line"/>
      <point x="210" y="0" type="line"/>
    </contour>
    <contour>
      <point x="1560" y="30" type="line"/>
      <point x="1528" y="12"/>
      <point x="1412" y="-20"/>
      <point x="1260" y="-20" type="curve" smooth="yes"/>
      <point x="634" y="-20"/>
      <point x="1172" y="756"/>
      <point x="680" y="756" type="curve" smooth="yes"/>
      <point x="390" y="756" type="line"/>
      <point x="390" y="771" type="line"/>
      <point x="960" y="771" type="line" smooth="yes"/>
      <point x="1586" y="771"/>
      <point x="1201" y="33"/>
      <point x="1447" y="33" type="curve" smooth="yes"/>
      <point x="1489" y="33"/>
      <point x="1523" y="43"/>
      <point x="1551" y="56" type="curve"/>
    </contour>
  </outline>
</glyph>
<glyph name="S" format="2">
  <advance width="1269"/>
  <unicode hex="0053"/>
  <outline>
    <contour>
      <point x="1110" y="1030" type="curve"/>
      <point x="1082" y="1030" type="line"/>
      <point x="962" y="1282"/>
      <point x="812" y="1484"/>
      <point x="587" y="1484" type="curve" smooth="yes"/>
      <point x="455" y="1484"/>
      <point x="380" y="1408"/>
      <point x="380" y="1290" type="curve" smooth="yes"/>
      <point x="380" y="980"/>
      <point x="1190" y="1060"/>
      <point x="1190" y="460" type="curve" smooth="yes"/>
      <point x="1190" y="160"/>
      <point x="932" y="-30"/>
      <point x="650" y="-30" type="curve" smooth="yes"/>
      <point x="338" y="-30"/>
      <point x="188" y="270"/>
      <point x="80" y="510" type="curve"/>
      <point x="108" y="510" type="line"/>
      <point x="211" y="297"/>
      <point x="363" y="4"/>
      <point x="637" y="4" type="curve" smooth="yes"/>
      <point x="809" y="4"/>
      <point x="910" y="112"/>
      <point x="910" y="250" type="curve" smooth="yes"/>
      <point x="910" y="600"/>
      <point x="100" y="450"/>
      <point x="100" y="1090" type="curve" smooth="yes"/>
      <point x="100" y="1370"/>
      <point x="332" y="1520"/>
      <point x="574" y="1520" type="curve" smooth="yes"/>
      <point x="830" y="1520"/>
      <point x="990" y="1312"/>
    </contour>
    <contour>
      <point x="1089" y="1520" type="line"/>
      <point x="1110" y="1520" type="line"/>
      <point x="1110" y="1030" type="line"/>
      <point x="1027" y="1176"/>
      <point x="960" y="1286"/>
      <point x="849" y="1420" type="curve"/>
    </contour>
    <contour>
      <point x="101" y="-20" type="line"/>
      <point x="80" y="-20" type="line"/>
      <point x="80" y="510" type="line"/>
      <point x="172" y="346"/>
      <point x="252" y="205"/>
      <point x="354" y="88" type="curve"/>
    </contour>
  </outline>
</glyph>
<glyph name="T" format="2">
  <advance width="1449"/>
  <unicode hex="0054"/>
  <outline>
    <contour>
      <point x="290" y="27" type="line"/>
      <point x="1160" y="27" type="line"/>
      <point x="1160" y="0" type="line"/>
      <point x="290" y="0" type="line"/>
    </contour>
    <contour>
      <point x="510" y="1486" type="line"/>
      <point x="940" y="1486" type="line"/>
      <point x="940" y="0" type="line"/>
      <point x="510" y="0" type="line"/>
    </contour>
    <contour>
      <point x="1000" y="1473" type="curve" smooth="yes"/>
      <point x="450" y="1473" type="line" smooth="yes"/>
      <point x="256" y="1473"/>
      <point x="118" y="1244"/>
      <point x="58" y="990" type="curve"/>
      <point x="30" y="990" type="line"/>
      <point x="30" y="1500" type="line"/>
      <point x="1420" y="1500" type="line"/>
      <point x="1420" y="990" type="line"/>
      <point x="1393" y="990" type="line"/>
      <point x="1333" y="1244"/>
      <point x="1194" y="1473"/>
    </contour>
  </outline>
</glyph>
<glyph name="U" format="2">
  <advance width="1500"/>
  <unicode hex="0055"/>
  <outline>
    <contour>
      <point x="1080" y="1500" type="line"/>
      <point x="1470" y="1500" type="line"/>
      <point x="1470" y="1473" type="line"/>
      <point x="1080" y="1473" type="line"/>
    </contour>
    <contour>
      <point x="30" y="1500" type="line"/>
      <point x="840" y="1500" type="line"/>
      <point x="840" y="1473" type="line"/>
      <point x="30" y="1473" type="line"/>
    </contour>
    <contour>
      <point x="1256" y="1500" type="line"/>
      <point x="1284" y="1500" type="line"/>
      <point x="1284" y="460" type="line" smooth="yes"/>
      <point x="1284" y="130"/>
      <point x="1126" y="-30"/>
      <point x="790" y="-30" type="curve" smooth="yes"/>
      <point x="384" y="-30"/>
      <point x="210" y="114"/>
      <point x="210" y="460" type="curve" smooth="yes"/>
      <point x="210" y="1500" type="line"/>
      <point x="640" y="1500" type="line"/>
      <point x="640" y="480" type="line" smooth="yes"/>
      <point x="640" y="216"/>
      <point x="679" y="24"/>
      <point x="907" y="24" type="curve" smooth="yes"/>
      <point x="1089" y="24"/>
      <point x="1256" y="147"/>
      <point x="1256" y="460" type="curve" smooth="yes"/>
    </contour>
  </outline>
</glyph>
<glyph name="V" format="2">
  <advance width="3358"/>
  <unicode hex="0056"/>
  <outline>
    <contour>
      <point x="3318" y="3016" type="line"/>
      <point x="2417" y="3016" type="line"/>
      <point x="2417" y="3072" type="line"/>
      <point x="3318" y="3072" type="line"/>
    </contour>
    <contour>
      <point x="1802" y="3016" type="line"/>
      <point x="41" y="3016" type="line"/>
      <point x="41" y="3072" type="line"/>
      <point x="1802" y="3072" type="line"/>
    </contour>
    <contour>
      <point x="2100" y="765" type="line"/>
      <point x="2913" y="3072" type="line"/>
      <point x="2983" y="3072" type="line"/>
      <point x="1873" y="-61" type="line"/>
      <point x="1413" y="-61" type="line"/>
      <point x="328" y="3072" type="line"/>
      <point x="1352" y="3072" type="line"/>
    </contour>
  </outline>
</glyph>
<glyph name="backslash" format="2">
  <advance width="1039"/>
  <unicode hex="005C"/>
  <outline>
    <contour>
      <point x="110" y="1560" type="line"/>
      <point x="960" y="-300" type="line"/>
      <point x="930" y="-300" type="line"/>
      <point x="80" y="1560" type="line"/>
    </contour>
  </outline>
</glyph>
<glyph name="grave" format="2">
  <advance width="1740"/>
  <unicode hex="0060"/>
  <outline>
    <contour>
      <point x="614" y="2786" type="line" smooth="yes"/>
      <point x="415" y="2745"/>
      <point x="226" y="2892"/>
      <point x="226" y="3092" type="curve" smooth="yes"/>
      <point x="226" y="3292"/>
      <point x="453" y="3481"/>
      <point x="656" y="3392" type="curve" smooth="yes"/>
      <point x="1506" y="3018" type="line"/>
      <point x="1498" y="2962" type="line"/>
    </contour>
  </outline>
</glyph>
<glyph name="a" format="2">
  <advance width="2604"/>
  <unicode hex="0061"/>
  <outline>
    <contour>
      <point x="2598" y="258" type="line"/>
      <point x="2504" y="53"/>
      <point x="2250" y="-41"/>
      <point x="1951" y="-41" type="curve" smooth="yes"/>
      <point x="1636" y="-41"/>
      <point x="1369" y="57"/>
      <point x="1369" y="340" type="curve" smooth="yes"/>
      <point x="1369" y="1249" type="line" smooth="yes"/>
      <point x="1369" y="1605"/>
      <point x="1243" y="1852"/>
      <point x="956" y="1852" type="curve" smooth="yes"/>
      <point x="799" y="1852"/>
      <point x="695" y="1814"/>
      <point x="625" y="1775" type="curve"/>
      <point x="850" y="1832"/>
      <point x="1144" y="1720"/>
      <point x="1144" y="1466" type="curve" smooth="yes"/>
      <point x="1144" y="1261"/>
      <point x="923" y="1110"/>
      <point x="698" y="1110" type="curve" smooth="yes"/>
      <point x="452" y="1110"/>
      <point x="280" y="1270"/>
      <point x="280" y="1458" type="curve" smooth="yes"/>
      <point x="280" y="1732"/>
      <point x="636" y="1917"/>
      <point x="1091" y="1917" type="curve" smooth="yes"/>
      <point x="1828" y="1917"/>
      <point x="2147" y="1663"/>
      <point x="2147" y="1249" type="curve" smooth="yes"/>
      <point x="2147" y="244" type="line" smooth="yes"/>
      <point x="2147" y="162"/>
      <point x="2201" y="102"/>
      <point x="2299" y="102" type="curve" smooth="yes"/>
      <point x="2367" y="102"/>
      <point x="2473" y="130"/>
      <point x="2555" y="280" type="curve"/>
    </contour>
    <contour>
      <point x="1033" y="1056" type="curve" smooth="yes"/>
      <point x="1582" y="1056" type="line"/>
      <point x="1582" y="1000" type="line"/>
      <point x="1320" y="1000" type="line" smooth="yes"/>
      <point x="1132" y="1000"/>
      <point x="964" y="799"/>
      <point x="964" y="545" type="curve" smooth="yes"/>
      <point x="964" y="365"/>
      <point x="1015" y="256"/>
      <point x="1117" y="256" type="curve" smooth="yes"/>
      <point x="1194" y="256"/>
      <point x="1369" y="327"/>
      <point x="1369" y="741" type="curve"/>
      <point x="1412" y="741" type="line"/>
      <point x="1412" y="233"/>
      <point x="1144" y="-41"/>
      <point x="689" y="-41" type="curve" smooth="yes"/>
      <point x="365" y="-41"/>
      <point x="136" y="160"/>
      <point x="136" y="463" type="curve" smooth="yes"/>
      <point x="136" y="807"/>
      <point x="451" y="1056"/>
    </contour>
  </outline>
</glyph>
<glyph name="b" format="2">
  <advance width="1338"/>
  <unicode hex="0062"/>
  <outline>
    <contour>
      <point x="525" y="460" type="curve" smooth="yes"/>
      <point x="525" y="764"/>
      <point x="641" y="938"/>
      <point x="858" y="938" type="curve" smooth="yes"/>
      <point x="1076" y="938"/>
      <point x="1283" y="760"/>
      <point x="1283" y="460" type="curve" smooth="yes"/>
      <point x="1283" y="160"/>
      <point x="1076" y="-20"/>
      <point x="858" y="-20" type="curve" smooth="yes"/>
      <point x="641" y="-20"/>
      <point x="525" y="156"/>
    </contour>
    <contour>
      <point x="546" y="460" type="curve" smooth="yes"/>
      <point x="546" y="191"/>
      <point x="667" y="37"/>
      <point x="755" y="37" type="curve" smooth="yes"/>
      <point x="823" y="37"/>
      <point x="853" y="152"/>
      <point x="853" y="460" type="curve" smooth="yes"/>
      <point x="853" y="768"/>
      <point x="823" y="881"/>
      <point x="755" y="881" type="curve" smooth="yes"/>
      <point x="667" y="881"/>
      <point x="546" y="729"/>
    </contour>
    <contour>
      <point x="167" y="1473" type="line"/>
      <point x="26" y="1473" type="line"/>
      <point x="26" y="1500" type="line"/>
      <point x="546" y="1500" type="line"/>
      <point x="546" y="0" type="line"/>
      <point x="26" y="0" type="line"/>
      <point x="26" y="27" type="line"/>
      <point x="167" y="27" type="line"/>
    </contour>
  </outline>
</glyph>
<glyph name="c" format="2">
  <advance width="2237"/>
  <unicode hex="0063"/>
  <outline>
    <contour>
      <point x="1821" y="1694" type="curve"/>
      <point x="1760" y="1753"/>
      <point x="1517" y="1855"/>
      <point x="1340" y="1855" type="curve" smooth="yes"/>
      <point x="1057" y="1855"/>
      <point x="1037" y="1327"/>
      <point x="1037" y="942" type="curve" smooth="yes"/>
      <point x="1037" y="475"/>
      <point x="1129" y="67"/>
      <point x="1398" y="67" type="curve" smooth="yes"/>
      <point x="1685" y="67"/>
      <point x="1910" y="269"/>
      <point x="2012" y="586" type="curve"/>
      <point x="2074" y="586" type="line"/>
      <point x="1968" y="230"/>
      <point x="1710" y="-41"/>
      <point x="1214" y="-41" type="curve" smooth="yes"/>
      <point x="555" y="-41"/>
      <point x="116" y="246"/>
      <point x="116" y="942" type="curve" smooth="yes"/>
      <point x="116" y="1556"/>
      <point x="497" y="1925"/>
      <point x="1238" y="1925" type="curve" smooth="yes"/>
      <point x="1697" y="1925"/>
      <point x="2102" y="1671"/>
      <point x="2102" y="1335" type="curve" smooth="yes"/>
      <point x="2102" y="1085"/>
      <point x="1931" y="938"/>
      <point x="1685" y="938" type="curve" smooth="yes"/>
      <point x="1460" y="938"/>
      <point x="1246" y="1045"/>
      <point x="1246" y="1352" type="curve" smooth="yes"/>
      <point x="1246" y="1618"/>
      <point x="1457" y="1741"/>
      <point x="1617" y="1741" type="curve" smooth="yes"/>
      <point x="1711" y="1741"/>
      <point x="1783" y="1714"/>
    </contour>
  </outline>
</glyph>
<glyph name="d" format="2">
  <advance width="1338"/>
  <unicode hex="0064"/>
  <outline>
    <contour>
      <point x="813" y="459" type="curve" smooth="yes"/>
      <point x="813" y="155"/>
      <point x="697" y="-20"/>
      <point x="480" y="-20" type="curve" smooth="yes"/>
      <point x="262" y="-20"/>
      <point x="57" y="159"/>
      <point x="57" y="459" type="curve" smooth="yes"/>
      <point x="57" y="759"/>
      <point x="262" y="938"/>
      <point x="480" y="938" type="curve" smooth="yes"/>
      <point x="697" y="938"/>
      <point x="813" y="763"/>
    </contour>
    <contour>
      <point x="792" y="459" type="curve" smooth="yes"/>
      <point x="792" y="754"/>
      <point x="660" y="881"/>
      <point x="584" y="881" type="curve" smooth="yes"/>
      <point x="516" y="881"/>
      <point x="487" y="780"/>
      <point x="487" y="459" type="curve" smooth="yes"/>
      <point x="487" y="138"/>
      <point x="529" y="50"/>
      <point x="597" y="50" type="curve" smooth="yes"/>
      <point x="673" y="50"/>
      <point x="792" y="164"/>
    </contour>
    <contour>
      <point x="1312" y="27" type="line"/>
      <point x="1312" y="0" type="line"/>
      <point x="792" y="0" type="line"/>
      <point x="792" y="1473" type="line"/>
      <point x="652" y="1473" type="line"/>
      <point x="652" y="1500" type="line"/>
      <point x="1172" y="1500" type="line"/>
      <point x="1172" y="27" type="line"/>
    </contour>
  </outline>
</glyph>
<glyph name="e" format="2">
  <advance width="1088"/>
  <unicode hex="0065"/>
  <outline>
    <contour>
      <point x="190" y="508" type="line"/>
      <point x="190" y="536" type="line"/>
      <point x="648" y="536" type="line"/>
      <point x="646" y="719"/>
      <point x="644" y="912"/>
      <point x="566" y="912" type="curve" smooth="yes"/>
      <point x="488" y="912"/>
      <point x="467" y="728"/>
      <point x="467" y="500" type="curve" smooth="yes"/>
      <point x="467" y="212"/>
      <point x="499" y="26"/>
      <point x="657" y="26" type="curve" smooth="yes"/>
      <point x="820" y="26"/>
      <point x="955" y="132"/>
      <point x="1005" y="286" type="curve"/>
      <point x="1033" y="286" type="line"/>
      <point x="981" y="112"/>
      <point x="835" y="-20"/>
      <point x="573" y="-20" type="curve" smooth="yes"/>
      <point x="271" y="-20"/>
      <point x="57" y="140"/>
      <point x="57" y="460" type="curve" smooth="yes"/>
      <point x="57" y="780"/>
      <point x="264" y="940"/>
      <point x="566" y="940" type="curve" smooth="yes"/>
      <point x="864" y="940"/>
      <point x="1031" y="726"/>
      <point x="1031" y="508" type="curve"/>
    </contour>
  </outline>
</glyph>
<glyph name="f" format="2">
  <advance width="852"/>
  <unicode hex="0066"/>
  <outline>
    <contour>
      <point x="17" y="27" type="line"/>
      <point x="796" y="27" type="line"/>
      <point x="796" y="0" type="line"/>
      <point x="17" y="0" type="line"/>
    </contour>
    <contour>
      <point x="17" y="920" type="line"/>
      <point x="836" y="920" type="line"/>
      <point x="836" y="893" type="line"/>
      <point x="17" y="893" type="line"/>
    </contour>
    <contour>
      <point x="984" y="1409" type="curve"/>
      <point x="955" y="1439"/>
      <point x="893" y="1492"/>
      <point x="784" y="1492" type="curve" smooth="yes"/>
      <point x="624" y="1492"/>
      <point x="557" y="1334"/>
      <point x="557" y="1080" type="curve" smooth="yes"/>
      <point x="557" y="0" type="line"/>
      <point x="197" y="0" type="line"/>
      <point x="197" y="1024" type="line" smooth="yes"/>
      <point x="197" y="1326"/>
      <point x="451" y="1520"/>
      <point x="771" y="1520" type="curve" smooth="yes"/>
      <point x="953" y="1520"/>
      <point x="1077" y="1396"/>
      <point x="1077" y="1262" type="curve" smooth="yes"/>
      <point x="1077" y="1140"/>
      <point x="1003" y="1058"/>
      <point x="883" y="1058" type="curve" smooth="yes"/>
      <point x="773" y="1058"/>
      <point x="670" y="1126"/>
      <point x="670" y="1246" type="curve" smooth="yes"/>
      <point x="670" y="1360"/>
      <point x="758" y="1444"/>
      <point x="860" y="1444" type="curve" smooth="yes"/>
      <point x="920" y="1444"/>
      <point x="968" y="1420"/>
    </contour>
  </outline>
</glyph>
<glyph name="g" format="2">
  <advance width="1346"/>
  <unicode hex="0067"/>
  <outline>
    <contour>
      <point x="91" y="134" type="curve" smooth="yes"/>
      <point x="91" y="308"/>
      <point x="375" y="344"/>
      <point x="565" y="344" type="curve"/>
      <point x="562" y="331" type="line"/>
      <point x="476" y="331"/>
      <point x="307" y="309"/>
      <point x="307" y="250" type="curve" smooth="yes"/>
      <point x="307" y="206"/>
      <point x="411" y="198"/>
      <point x="521" y="198" type="curve" smooth="yes"/>
      <point x="591" y="198"/>
      <point x="667" y="200"/>
      <point x="723" y="200" type="curve" smooth="yes"/>
      <point x="873" y="200"/>
      <point x="1077" y="108"/>
      <point x="1077" y="-164" type="curve" smooth="yes"/>
      <point x="1077" y="-406"/>
      <point x="877" y="-520"/>
      <point x="557" y="-520" type="curve" smooth="yes"/>
      <point x="311" y="-520"/>
      <point x="26" y="-460"/>
      <point x="26" y="-277" type="curve" smooth="yes"/>
      <point x="26" y="-102"/>
      <point x="266" y="-81"/>
      <point x="356" y="-81" type="curve" smooth="yes"/>
      <point x="376" y="-81" type="line"/>
      <point x="326" y="-107"/>
      <point x="316" y="-194"/>
      <point x="316" y="-218" type="curve" smooth="yes"/>
      <point x="316" y="-394"/>
      <point x="431" y="-485"/>
      <point x="583" y="-485" type="curve" smooth="yes"/>
      <point x="733" y="-485"/>
      <point x="950" y="-463"/>
      <point x="950" y="-291" type="curve" smooth="yes"/>
      <point x="950" y="-183"/>
      <point x="847" y="-118"/>
      <point x="717" y="-118" type="curve" smooth="yes"/>
      <point x="655" y="-118"/>
      <point x="533" y="-118"/>
      <point x="489" y="-118" type="curve" smooth="yes"/>
      <point x="309" y="-118"/>
      <point x="91" y="-50"/>
    </contour>
    <contour>
      <point x="467" y="630" type="curve" smooth="yes"/>
      <point x="467" y="442"/>
      <point x="477" y="348"/>
      <point x="535" y="348" type="curve" smooth="yes"/>
      <point x="573" y="348"/>
      <point x="603" y="442"/>
      <point x="603" y="630" type="curve" smooth="yes"/>
      <point x="603" y="818"/>
      <point x="573" y="912"/>
      <point x="535" y="912" type="curve" smooth="yes"/>
      <point x="497" y="912"/>
      <point x="467" y="818"/>
    </contour>
    <contour>
      <point x="77" y="630" type="curve" smooth="yes"/>
      <point x="77" y="850"/>
      <point x="313" y="940"/>
      <point x="535" y="940" type="curve" smooth="yes"/>
      <point x="757" y="940"/>
      <point x="993" y="850"/>
      <point x="993" y="630" type="curve" smooth="yes"/>
      <point x="993" y="410"/>
      <point x="757" y="320"/>
      <point x="535" y="320" type="curve" smooth="yes"/>
      <point x="313" y="320"/>
      <point x="77" y="410"/>
    </contour>
    <contour>
      <point x="1268" y="827" type="curve"/>
      <point x="1240" y="867"/>
      <point x="1180" y="902"/>
      <point x="1103" y="902" type="curve" smooth="yes"/>
      <point x="996" y="902"/>
      <point x="886" y="852"/>
      <point x="846" y="678" type="curve"/>
      <point x="823" y="694" type="line"/>
      <point x="863" y="876"/>
      <point x="983" y="930"/>
      <point x="1103" y="930" type="curve" smooth="yes"/>
      <point x="1265" y="930"/>
      <point x="1331" y="814"/>
      <point x="1331" y="738" type="curve" smooth="yes"/>
      <point x="1331" y="608"/>
      <point x="1249" y="568"/>
      <point x="1179" y="568" type="curve" smooth="yes"/>
      <point x="1109" y="568"/>
      <point x="1029" y="612"/>
      <point x="1029" y="718" type="curve" smooth="yes"/>
      <point x="1029" y="794"/>
      <point x="1082" y="862"/>
      <point x="1168" y="862" type="curve" smooth="yes"/>
      <point x="1224" y="862"/>
      <point x="1253" y="840"/>
    </contour>
  </outline>
</glyph>
<glyph name="i" format="2">
  <advance width="704"/>
  <unicode hex="0069"/>
  <outline>
    <contour>
      <point x="37" y="27" type="line"/>
      <point x="697" y="27" type="line"/>
      <point x="697" y="0" type="line"/>
      <point x="37" y="0" type="line"/>
    </contour>
    <contour>
      <point x="126" y="1300" type="curve" smooth="yes"/>
      <point x="126" y="1426"/>
      <point x="221" y="1520"/>
      <point x="347" y="1520" type="curve" smooth="yes"/>
      <point x="473" y="1520"/>
      <point x="566" y="1426"/>
      <point x="566" y="1300" type="curve" smooth="yes"/>
      <point x="566" y="1174"/>
      <point x="473" y="1080"/>
      <point x="347" y="1080" type="curve" smooth="yes"/>
      <point x="221" y="1080"/>
      <point x="126" y="1174"/>
    </contour>
    <contour>
      <point x="177" y="893" type="line"/>
      <point x="37" y="893" type="line"/>
      <point x="37" y="920" type="line"/>
      <point x="557" y="920" type="line"/>
      <point x="557" y="0" type="line"/>
      <point x="177" y="0" type="line"/>
    </contour>
  </outline>
</glyph>
<glyph name="j" format="2">
  <advance width="726"/>
  <unicode hex="006A"/>
  <outline>
    <contour>
      <point x="161" y="1300" type="curve" smooth="yes"/>
      <point x="161" y="1426"/>
      <point x="254" y="1520"/>
      <point x="380" y="1520" type="curve" smooth="yes"/>
      <point x="506" y="1520"/>
      <point x="601" y="1426"/>
      <point x="601" y="1300" type="curve" smooth="yes"/>
      <point x="601" y="1174"/>
      <point x="506" y="1080"/>
      <point x="380" y="1080" type="curve" smooth="yes"/>
      <point x="254" y="1080"/>
      <point x="161" y="1174"/>
    </contour>
    <contour>
      <point x="586" y="920" type="line"/>
      <point x="586" y="-24" type="line" smooth="yes"/>
      <point x="586" y="-286"/>
      <point x="333" y="-520"/>
      <point x="33" y="-520" type="curve" smooth="yes"/>
      <point x="-169" y="-520"/>
      <point x="-333" y="-418"/>
      <point x="-333" y="-268" type="curve" smooth="yes"/>
      <point x="-333" y="-148"/>
      <point x="-234" y="-58"/>
      <point x="-120" y="-58" type="curve" smooth="yes"/>
      <point x="-10" y="-58"/>
      <point x="93" y="-126"/>
      <point x="93" y="-246" type="curve" smooth="yes"/>
      <point x="93" y="-356"/>
      <point x="8" y="-438"/>
      <point x="-130" y="-438" type="curve" smooth="yes"/>
      <point x="-177" y="-438"/>
      <point x="-192" y="-433"/>
      <point x="-215" y="-424" type="curve"/>
      <point x="-169" y="-452"/>
      <point x="-107" y="-485"/>
      <point x="-6" y="-485" type="curve" smooth="yes"/>
      <point x="234" y="-485"/>
      <point x="203" y="-212"/>
      <point x="203" y="42" type="curve" smooth="yes"/>
      <point x="207" y="893" type="line"/>
      <point x="26" y="893" type="line"/>
      <point x="26" y="920" type="line"/>
    </contour>
  </outline>
</glyph>
<glyph name="k" format="2">
  <advance width="1384"/>
  <unicode hex="006B"/>
  <outline>
    <contour>
      <point x="1303" y="0" type="line"/>
      <point x="836" y="0" type="line"/>
      <point x="491" y="542" type="line"/>
      <point x="1075" y="920" type="line"/>
      <point x="1120" y="920" type="line"/>
      <point x="806" y="711" type="line"/>
    </contour>
    <contour>
      <point x="725" y="27" type="line"/>
      <point x="1378" y="27" type="line"/>
      <point x="1378" y="0" type="line"/>
      <point x="725" y="0" type="line"/>
    </contour>
    <contour>
      <point x="1250" y="893" type="line"/>
      <point x="805" y="893" type="line"/>
      <point x="805" y="920" type="line"/>
      <point x="1250" y="920" type="line"/>
    </contour>
    <contour>
      <point x="26" y="27" type="line"/>
      <point x="667" y="27" type="line"/>
      <point x="667" y="0" type="line"/>
      <point x="26" y="0" type="line"/>
    </contour>
    <contour>
      <point x="207" y="1473" type="line"/>
      <point x="26" y="1473" type="line"/>
      <point x="26" y="1500" type="line"/>
      <point x="586" y="1500" type="line"/>
      <point x="586" y="0" type="line"/>
      <point x="207" y="0" type="line"/>
    </contour>
  </outline>
</glyph>
<glyph name="l" format="2">
  <advance width="792"/>
  <unicode hex="006C"/>
  <outline>
    <contour>
      <point x="26" y="27" type="line"/>
      <point x="767" y="27" type="line"/>
      <point x="767" y="0" type="line"/>
      <point x="26" y="0" type="line"/>
    </contour>
    <contour>
      <point x="207" y="1473" type="line"/>
      <point x="26" y="1473" type="line"/>
      <point x="26" y="1500" type="line"/>
      <point x="586" y="1500" type="line"/>
      <point x="586" y="0" type="line"/>
      <point x="207" y="0" type="line"/>
    </contour>
  </outline>
</glyph>
<glyph name="m" format="2">
  <advance width="1852"/>
  <unicode hex="006D"/>
  <outline>
    <contour>
      <point x="1117" y="638" type="curve" smooth="yes"/>
      <point x="1117" y="0" type="line"/>
      <point x="737" y="0" type="line"/>
      <point x="737" y="630" type="line" smooth="yes"/>
      <point x="737" y="798"/>
      <point x="725" y="835"/>
      <point x="686" y="835" type="curve" smooth="yes"/>
      <point x="617" y="835"/>
      <point x="546" y="654"/>
      <point x="546" y="446" type="curve"/>
      <point x="525" y="446" type="line"/>
      <point x="525" y="651"/>
      <point x="567" y="940"/>
      <point x="853" y="940" type="curve" smooth="yes"/>
      <point x="1047" y="940"/>
      <point x="1117" y="812"/>
    </contour>
    <contour>
      <point x="26" y="27" type="line"/>
      <point x="617" y="27" type="line"/>
      <point x="617" y="0" type="line"/>
      <point x="26" y="0" type="line"/>
    </contour>
    <contour>
      <point x="667" y="27" type="line"/>
      <point x="1187" y="27" type="line"/>
      <point x="1187" y="0" type="line"/>
      <point x="667" y="0" type="line"/>
    </contour>
    <contour>
      <point x="1237" y="27" type="line"/>
      <point x="1827" y="27" type="line"/>
      <point x="1827" y="0" type="line"/>
      <point x="1237" y="0" type="line"/>
    </contour>
    <contour>
      <point x="167" y="893" type="line"/>
      <point x="26" y="893" type="line"/>
      <point x="26" y="920" type="line"/>
      <point x="546" y="920" type="line"/>
      <point x="546" y="0" type="line"/>
      <point x="167" y="0" type="line"/>
    </contour>
    <contour>
      <point x="1687" y="638" type="curve" smooth="yes"/>
      <point x="1687" y="0" type="line"/>
      <point x="1307" y="0" type="line"/>
      <point x="1307" y="630" type="line" smooth="yes"/>
      <point x="1307" y="798"/>
      <point x="1296" y="835"/>
      <point x="1256" y="835" type="curve" smooth="yes"/>
      <point x="1187" y="835"/>
      <point x="1117" y="654"/>
      <point x="1117" y="446" type="curve"/>
      <point x="1099" y="446" type="line"/>
      <point x="1099" y="651"/>
      <point x="1128" y="940"/>
      <point x="1422" y="940" type="curve" smooth="yes"/>
      <point x="1616" y="940"/>
      <point x="1687" y="812"/>
    </contour>
  </outline>
</glyph>
<glyph name="n" format="2">
  <advance width="2708"/>
  <unicode hex="006E"/>
  <outline>
    <contour>
      <point x="1590" y="1290" type="line" smooth="yes"/>
      <point x="1590" y="1634"/>
      <point x="1558" y="1680"/>
      <point x="1443" y="1680" type="curve" smooth="yes"/>
      <point x="1280" y="1680"/>
      <point x="1119" y="1318"/>
      <point x="1119" y="913" type="curve"/>
      <point x="1076" y="913" type="line"/>
      <point x="1076" y="1332"/>
      <point x="1201" y="1925"/>
      <point x="1787" y="1925" type="curve" smooth="yes"/>
      <point x="2225" y="1925"/>
      <point x="2369" y="1663"/>
      <point x="2369" y="1307" type="curve" smooth="yes"/>
      <point x="2369" y="0" type="line"/>
      <point x="1590" y="0" type="line"/>
    </contour>
    <contour>
      <point x="1427" y="56" type="line"/>
      <point x="2655" y="56" type="line"/>
      <point x="2655" y="0" type="line"/>
      <point x="1427" y="0" type="line"/>
    </contour>
    <contour>
      <point x="54" y="56" type="line"/>
      <point x="1283" y="56" type="line"/>
      <point x="1283" y="0" type="line"/>
      <point x="54" y="0" type="line"/>
    </contour>
    <contour>
      <point x="341" y="1828" type="line"/>
      <point x="54" y="1828" type="line"/>
      <point x="54" y="1884" type="line"/>
      <point x="1119" y="1884" type="line"/>
      <point x="1119" y="0" type="line"/>
      <point x="341" y="0" type="line"/>
    </contour>
  </outline>
</glyph>
<glyph name="o" format="2">
  <advance width="1148"/>
  <unicode hex="006F"/>
  <outline>
    <contour>
      <point x="447" y="460" type="curve" smooth="yes"/>
      <point x="447" y="172"/>
      <point x="497" y="8"/>
      <point x="575" y="8" type="curve" smooth="yes"/>
      <point x="653" y="8"/>
      <point x="703" y="172"/>
      <point x="703" y="460" type="curve" smooth="yes"/>
      <point x="703" y="748"/>
      <point x="653" y="912"/>
      <point x="575" y="912" type="curve" smooth="yes"/>
      <point x="497" y="912"/>
      <point x="447" y="748"/>
    </contour>
    <contour>
      <point x="57" y="460" type="curve" smooth="yes"/>
      <point x="57" y="720"/>
      <point x="253" y="940"/>
      <point x="575" y="940" type="curve" smooth="yes"/>
      <point x="897" y="940"/>
      <point x="1093" y="720"/>
      <point x="1093" y="460" type="curve" smooth="yes"/>
      <point x="1093" y="200"/>
      <point x="897" y="-20"/>
      <point x="575" y="-20" type="curve" smooth="yes"/>
      <point x="253" y="-20"/>
      <point x="57" y="200"/>
    </contour>
  </outline>
</glyph>
<glyph name="p" format="2">
  <advance width="1338"/>
  <unicode hex="0070"/>
  <outline>
    <contour>
      <point x="525" y="460" type="curve" smooth="yes"/>
      <point x="525" y="764"/>
      <point x="641" y="938"/>
      <point x="858" y="938" type="curve" smooth="yes"/>
      <point x="1076" y="938"/>
      <point x="1283" y="760"/>
      <point x="1283" y="460" type="curve" smooth="yes"/>
      <point x="1283" y="160"/>
      <point x="1076" y="-20"/>
      <point x="858" y="-20" type="curve" smooth="yes"/>
      <point x="641" y="-20"/>
      <point x="525" y="156"/>
    </contour>
    <contour>
      <point x="546" y="460" type="curve" smooth="yes"/>
      <point x="546" y="165"/>
      <point x="685" y="37"/>
      <point x="749" y="37" type="curve" smooth="yes"/>
      <point x="830" y="37"/>
      <point x="853" y="178"/>
      <point x="853" y="460" type="curve" smooth="yes"/>
      <point x="853" y="742"/>
      <point x="836" y="881"/>
      <point x="755" y="881" type="curve" smooth="yes"/>
      <point x="680" y="881"/>
      <point x="546" y="755"/>
    </contour>
    <contour>
      <point x="26" y="-473" type="line"/>
      <point x="687" y="-473" type="line"/>
      <point x="687" y="-500" type="line"/>
      <point x="26" y="-500" type="line"/>
    </contour>
    <contour>
      <point x="167" y="893" type="line"/>
      <point x="26" y="893" type="line"/>
      <point x="26" y="920" type="line"/>
      <point x="546" y="920" type="line"/>
      <point x="546" y="-500" type="line"/>
      <point x="167" y="-500" type="line"/>
    </contour>
  </outline>
</glyph>
<glyph name="q" format="2">
  <advance width="2741"/>
  <unicode hex="0071"/>
  <outline>
    <contour>
      <point x="1666" y="941" type="curve" smooth="yes"/>
      <point x="1666" y="318"/>
      <point x="1429" y="-41"/>
      <point x="984" y="-41" type="curve" smooth="yes"/>
      <point x="538" y="-41"/>
      <point x="116" y="327"/>
      <point x="116" y="941" type="curve" smooth="yes"/>
      <point x="116" y="1555"/>
      <point x="538" y="1921"/>
      <point x="984" y="1921" type="curve" smooth="yes"/>
      <point x="1428" y="1921"/>
      <point x="1666" y="1564"/>
    </contour>
    <contour>
      <point x="1623" y="941" type="curve" smooth="yes"/>
      <point x="1623" y="1545"/>
      <point x="1350" y="1805"/>
      <point x="1196" y="1805" type="curve" smooth="yes"/>
      <point x="1057" y="1805"/>
      <point x="997" y="1518"/>
      <point x="997" y="941" type="curve" smooth="yes"/>
      <point x="997" y="364"/>
      <point x="1057" y="102"/>
      <point x="1196" y="102" type="curve" smooth="yes"/>
      <point x="1403" y="102"/>
      <point x="1623" y="337"/>
    </contour>
    <contour>
      <point x="2688" y="-968" type="line"/>
      <point x="2688" y="-1024" type="line"/>
      <point x="1336" y="-1024" type="line"/>
      <point x="1336" y="-968" type="line"/>
    </contour>
    <contour>
      <point x="2688" y="1884" type="line"/>
      <point x="2688" y="1828" type="line"/>
      <point x="2401" y="1828" type="line"/>
      <point x="2401" y="-1024" type="line"/>
      <point x="1623" y="-1024" type="line"/>
      <point x="1623" y="1884" type="line"/>
    </contour>
  </outline>
</glyph>
<glyph name="r" format="2">
  <advance width="1095"/>
  <unicode hex="0072"/>
  <outline>
    <contour>
      <point x="982" y="838" type="curve"/>
      <point x="921" y="899"/>
      <point x="861" y="908"/>
      <point x="803" y="908" type="curve" smooth="yes"/>
      <point x="586" y="908"/>
      <point x="546" y="649"/>
      <point x="546" y="446" type="curve"/>
      <point x="525" y="446" type="line"/>
      <point x="525" y="690"/>
      <point x="554" y="940"/>
      <point x="816" y="940" type="curve" smooth="yes"/>
      <point x="948" y="940"/>
      <point x="1081" y="836"/>
      <point x="1081" y="678" type="curve" smooth="yes"/>
      <point x="1081" y="560"/>
      <point x="1001" y="456"/>
      <point x="865" y="456" type="curve" smooth="yes"/>
      <point x="739" y="456"/>
      <point x="646" y="542"/>
      <point x="646" y="666" type="curve" smooth="yes"/>
      <point x="646" y="819"/>
      <point x="800" y="929"/>
    </contour>
    <contour>
      <point x="26" y="27" type="line"/>
      <point x="687" y="27" type="line"/>
      <point x="687" y="0" type="line"/>
      <point x="26" y="0" type="line"/>
    </contour>
    <contour>
      <point x="167" y="893" type="line"/>
      <point x="26" y="893" type="line"/>
      <point x="26" y="920" type="line"/>
      <point x="546" y="920" type="line"/>
      <point x="546" y="0" type="line"/>
      <point x="167" y="0" type="line"/>
    </contour>
  </outline>
</glyph>
<glyph name="s" format="2">
  <advance width="932"/>
  <unicode hex="0073"/>
  <outline>
    <contour>
      <point x="770" y="711" type="curve"/>
      <point x="732" y="765"/>
      <point x="689" y="810"/>
      <point x="647" y="854" type="curve"/>
      <point x="796" y="940" type="line"/>
      <point x="817" y="940" type="line"/>
      <point x="817" y="660" type="line"/>
      <point x="790" y="660" type="line"/>
      <point x="785" y="677"/>
      <point x="778" y="695"/>
    </contour>
    <contour>
      <point x="811" y="660" type="curve"/>
      <point x="790" y="660" type="line"/>
      <point x="710" y="774"/>
      <point x="607" y="908"/>
      <point x="432" y="908" type="curve" smooth="yes"/>
      <point x="355" y="908"/>
      <point x="267" y="876"/>
      <point x="267" y="796" type="curve" smooth="yes"/>
      <point x="267" y="635"/>
      <point x="887" y="700"/>
      <point x="887" y="304" type="curve" smooth="yes"/>
      <point x="887" y="66"/>
      <point x="678" y="-20"/>
      <point x="504" y="-20" type="curve" smooth="yes"/>
      <point x="296" y="-20"/>
      <point x="167" y="104"/>
      <point x="77" y="320" type="curve"/>
      <point x="98" y="320" type="line"/>
      <point x="196" y="122"/>
      <point x="328" y="10"/>
      <point x="491" y="10" type="curve" smooth="yes"/>
      <point x="605" y="10"/>
      <point x="701" y="48"/>
      <point x="701" y="123" type="curve" smooth="yes"/>
      <point x="701" y="278"/>
      <point x="91" y="218"/>
      <point x="91" y="630" type="curve" smooth="yes"/>
      <point x="91" y="818"/>
      <point x="241" y="938"/>
      <point x="431" y="938" type="curve" smooth="yes"/>
      <point x="627" y="938"/>
      <point x="731" y="792"/>
    </contour>
    <contour>
      <point x="91" y="-20" type="line"/>
      <point x="70" y="-20" type="line"/>
      <point x="70" y="320" type="line"/>
      <point x="98" y="320" type="line"/>
      <point x="101" y="295"/>
      <point x="106" y="271"/>
      <point x="113" y="244" type="curve"/>
      <point x="155" y="175"/>
      <point x="197" y="129"/>
      <point x="239" y="85" type="curve"/>
    </contour>
  </outline>
</glyph>
<glyph name="t" format="2">
  <advance width="806"/>
  <unicode hex="0074"/>
  <outline>
    <contour>
      <point x="6" y="920" type="line"/>
      <point x="747" y="920" type="line"/>
      <point x="747" y="893" type="line"/>
      <point x="6" y="893" type="line"/>
    </contour>
    <contour>
      <point x="807" y="204" type="line"/>
      <point x="759" y="76"/>
      <point x="637" y="-14"/>
      <point x="435" y="-14" type="curve" smooth="yes"/>
      <point x="211" y="-14"/>
      <point x="152" y="72"/>
      <point x="152" y="242" type="curve" smooth="yes"/>
      <point x="152" y="1120" type="line"/>
      <point x="272" y="1120"/>
      <point x="433" y="1130"/>
      <point x="533" y="1180" type="curve"/>
      <point x="533" y="212" type="line" smooth="yes"/>
      <point x="533" y="112"/>
      <point x="554" y="65"/>
      <point x="608" y="65" type="curve" smooth="yes"/>
      <point x="664" y="65"/>
      <point x="741" y="112"/>
      <point x="782" y="213" type="curve"/>
    </contour>
  </outline>
</glyph>
<glyph name="u" format="2">
  <advance width="1322"/>
  <unicode hex="0075"/>
  <outline>
    <contour>
      <point x="546" y="920" type="line"/>
      <point x="546" y="290" type="line" smooth="yes"/>
      <point x="546" y="122"/>
      <point x="563" y="100"/>
      <point x="619" y="100" type="curve" smooth="yes"/>
      <point x="699" y="100"/>
      <point x="776" y="276"/>
      <point x="776" y="474" type="curve"/>
      <point x="798" y="474" type="line"/>
      <point x="798" y="269"/>
      <point x="737" y="-20"/>
      <point x="451" y="-20" type="curve" smooth="yes"/>
      <point x="237" y="-20"/>
      <point x="167" y="108"/>
      <point x="167" y="282" type="curve" smooth="yes"/>
      <point x="167" y="893" type="line"/>
      <point x="26" y="893" type="line"/>
      <point x="26" y="920" type="line"/>
    </contour>
    <contour>
      <point x="1157" y="27" type="line"/>
      <point x="1296" y="27" type="line"/>
      <point x="1296" y="0" type="line"/>
      <point x="776" y="0" type="line"/>
      <point x="776" y="893" type="line"/>
      <point x="657" y="893" type="line"/>
      <point x="657" y="920" type="line"/>
      <point x="1157" y="920" type="line"/>
    </contour>
  </outline>
</glyph>
<glyph name="v" format="2">
  <advance width="1197"/>
  <unicode hex="0076"/>
  <outline>
    <contour>
      <point x="1208" y="893" type="line"/>
      <point x="820" y="893" type="line"/>
      <point x="820" y="920" type="line"/>
      <point x="1208" y="920" type="line"/>
    </contour>
    <contour>
      <point x="672" y="893" type="line"/>
      <point x="-10" y="893" type="line"/>
      <point x="-10" y="920" type="line"/>
      <point x="672" y="920" type="line"/>
    </contour>
    <contour>
      <point x="759" y="274" type="line"/>
      <point x="1016" y="920" type="line"/>
      <point x="1053" y="920" type="line"/>
      <point x="677" y="-20" type="line"/>
      <point x="506" y="-20" type="line"/>
      <point x="120" y="920" type="line"/>
      <point x="540" y="920" type="line"/>
    </contour>
  </outline>
</glyph>
<glyph name="w" format="2">
  <advance width="1769"/>
  <unicode hex="0077"/>
  <outline>
    <contour>
      <point x="712" y="893" type="line"/>
      <point x="-10" y="893" type="line"/>
      <point x="-10" y="920" type="line"/>
      <point x="712" y="920" type="line"/>
    </contour>
    <contour>
      <point x="1780" y="893" type="line"/>
      <point x="1352" y="893" type="line"/>
      <point x="1352" y="920" type="line"/>
      <point x="1780" y="920" type="line"/>
    </contour>
    <contour>
      <point x="690" y="296" type="line"/>
      <point x="940" y="940" type="line"/>
      <point x="1210" y="940" type="line"/>
      <point x="1382" y="348" type="line"/>
      <point x="1572" y="920" type="line"/>
      <point x="1607" y="920" type="line"/>
      <point x="1292" y="-20" type="line"/>
      <point x="1118" y="-20" type="line"/>
      <point x="869" y="667" type="line"/>
      <point x="601" y="-20" type="line"/>
      <point x="426" y="-20" type="line"/>
      <point x="120" y="920" type="line"/>
      <point x="528" y="920" type="line"/>
    </contour>
  </outline>
</glyph>
<glyph name="y" format="2">
  <advance width="2612"/>
  <unicode hex="0079"/>
  <outline>
    <contour>
      <point x="1663" y="1828" type="line"/>
      <point x="-61" y="1828" type="line"/>
      <point x="-61" y="1884" type="line"/>
      <point x="1663" y="1884" type="line"/>
    </contour>
    <contour>
      <point x="2675" y="1828" type="line"/>
      <point x="1876" y="1828" type="line"/>
      <point x="1876" y="1884" type="line"/>
      <point x="2675" y="1884" type="line"/>
    </contour>
    <contour>
      <point x="1802" y="739" type="line"/>
      <point x="1336" y="-115" type="line"/>
      <point x="242" y="1884" type="line"/>
      <point x="1184" y="1884" type="line"/>
    </contour>
    <contour>
      <point x="1047" y="-628" type="curve"/>
      <point x="2345" y="1884" type="line"/>
      <point x="2420" y="1884" type="line"/>
      <point x="1062" y="-745" type="line" smooth="yes"/>
      <point x="973" y="-916"/>
      <point x="829" y="-1028"/>
      <point x="632" y="-1028" type="curve" smooth="yes"/>
      <point x="407" y="-1028"/>
      <point x="213" y="-877"/>
      <point x="213" y="-639" type="curve" smooth="yes"/>
      <point x="213" y="-422"/>
      <point x="389" y="-221"/>
      <point x="643" y="-221" type="curve" smooth="yes"/>
      <point x="872" y="-221"/>
      <point x="1046" y="-419"/>
    </contour>
  </outline>
</glyph>
<glyph name="z" format="2">
  <advance width="1012"/>
  <unicode hex="007A"/>
  <outline>
    <contour>
      <point x="429" y="893" type="line" smooth="yes"/>
      <point x="281" y="893"/>
      <point x="160" y="778"/>
      <point x="100" y="576" type="curve"/>
      <point x="73" y="576" type="line"/>
      <point x="73" y="920" type="line"/>
      <point x="955" y="920" type="line"/>
      <point x="955" y="893" type="line"/>
      <point x="433" y="27" type="line"/>
      <point x="584" y="27" type="line" smooth="yes"/>
      <point x="778" y="27"/>
      <point x="899" y="120"/>
      <point x="959" y="368" type="curve"/>
      <point x="987" y="368" type="line"/>
      <point x="987" y="0" type="line"/>
      <point x="17" y="0" type="line"/>
      <point x="17" y="27" type="line"/>
      <point x="537" y="893" type="line"/>
    </contour>
  </outline>
</glyph>
<glyph name="braceleft" format="2">
  <advance width="783"/>
  <unicode hex="007B"/>
  <outline>
    <contour>
      <point x="724" y="1560" type="curve"/>
      <point x="724" y="1533" type="line"/>
      <point x="600" y="1533"/>
      <point x="536" y="1420"/>
      <point x="536" y="1294" type="curve" smooth="yes"/>
      <point x="536" y="1182"/>
      <point x="604" y="1082"/>
      <point x="604" y="922" type="curve" smooth="yes"/>
      <point x="604" y="756"/>
      <point x="498" y="666"/>
      <point x="110" y="626" type="curve"/>
      <point x="110" y="645" type="line"/>
      <point x="170" y="665"/>
      <point x="230" y="710"/>
      <point x="230" y="792" type="curve" smooth="yes"/>
      <point x="230" y="918"/>
      <point x="110" y="1008"/>
      <point x="110" y="1242" type="curve" smooth="yes"/>
      <point x="110" y="1460"/>
      <point x="254" y="1560"/>
    </contour>
    <contour>
      <point x="724" y="-300" type="line"/>
      <point x="254" y="-300"/>
      <point x="110" y="-198"/>
      <point x="110" y="20" type="curve" smooth="yes"/>
      <point x="110" y="254"/>
      <point x="230" y="344"/>
      <point x="230" y="470" type="curve" smooth="yes"/>
      <point x="230" y="552"/>
      <point x="170" y="596"/>
      <point x="110" y="616" type="curve"/>
      <point x="110" y="635" type="line"/>
      <point x="498" y="595"/>
      <point x="604" y="506"/>
      <point x="604" y="340" type="curve" smooth="yes"/>
      <point x="604" y="180"/>
      <point x="536" y="80"/>
      <point x="536" y="-32" type="curve" smooth="yes"/>
      <point x="536" y="-158"/>
      <point x="600" y="-272"/>
      <point x="724" y="-272" type="curve"/>
    </contour>
  </outline>
</glyph>
<glyph name="sterling" format="2">
  <advance width="1373"/>
  <unicode hex="00A3"/>
  <outline>
    <contour>
      <point x="1324" y="554" type="line"/>
      <point x="1324" y="64"/>
      <point x="1202" y="-60"/>
      <point x="924" y="-60" type="curve" smooth="yes"/>
      <point x="650" y="-60"/>
      <point x="500" y="60"/>
      <point x="374" y="60" type="curve" smooth="yes"/>
      <point x="292" y="60"/>
      <point x="192" y="20"/>
      <point x="172" y="-40" type="curve"/>
      <point x="157" y="-40" type="line"/>
      <point x="177" y="108"/>
      <point x="418" y="434"/>
      <point x="644" y="434" type="curve" smooth="yes"/>
      <point x="804" y="434"/>
      <point x="891" y="366"/>
      <point x="1003" y="366" type="curve" smooth="yes"/>
      <point x="1143" y="366"/>
      <point x="1297" y="390"/>
      <point x="1297" y="554" type="curve"/>
    </contour>
    <contour>
      <point x="930" y="804" type="line"/>
      <point x="930" y="776" type="line"/>
      <point x="30" y="776" type="line"/>
      <point x="30" y="804" type="line"/>
    </contour>
    <contour>
      <point x="156" y="1100" type="curve" smooth="yes"/>
      <point x="156" y="1380"/>
      <point x="386" y="1520"/>
      <point x="768" y="1520" type="curve" smooth="yes"/>
      <point x="1092" y="1520"/>
      <point x="1304" y="1306"/>
      <point x="1304" y="1142" type="curve" smooth="yes"/>
      <point x="1304" y="1000"/>
      <point x="1214" y="888"/>
      <point x="1084" y="888" type="curve" smooth="yes"/>
      <point x="954" y="888"/>
      <point x="832" y="980"/>
      <point x="832" y="1120" type="curve" smooth="yes"/>
      <point x="832" y="1250"/>
      <point x="948" y="1350"/>
      <point x="1066" y="1350" type="curve" smooth="yes"/>
      <point x="1140" y="1350"/>
      <point x="1173" y="1315"/>
      <point x="1188" y="1299" type="curve"/>
      <point x="1125" y="1386"/>
      <point x="986" y="1472"/>
      <point x="848" y="1472" type="curve" smooth="yes"/>
      <point x="710" y="1472"/>
      <point x="618" y="1408"/>
      <point x="618" y="1220" type="curve" smooth="yes"/>
      <point x="618" y="1022"/>
      <point x="730" y="970"/>
      <point x="730" y="780" type="curve" smooth="yes"/>
      <point x="730" y="400"/>
      <point x="146" y="410"/>
      <point x="172" y="-40" type="curve"/>
      <point x="144" y="-40" type="line"/>
      <point x="106" y="238"/>
      <point x="318" y="394"/>
      <point x="318" y="522" type="curve" smooth="yes"/>
      <point x="318" y="750"/>
      <point x="156" y="870"/>
    </contour>
  </outline>
</glyph>
<glyph name="section" format="2">
  <advance width="1011"/>
  <unicode hex="00A7"/>
  <outline>
    <contour>
      <point x="330" y="1318" type="curve" smooth="yes"/>
      <point x="330" y="1106"/>
      <point x="916" y="1086"/>
      <point x="916" y="780" type="curve" smooth="yes"/>
      <point x="916" y="616"/>
      <point x="798" y="582"/>
      <point x="710" y="530" type="curve"/>
      <point x="684" y="530" type="line"/>
      <point x="708" y="557"/>
      <point x="751" y="573"/>
      <point x="751" y="649" type="curve" smooth="yes"/>
      <point x="751" y="831"/>
      <point x="144" y="812"/>
      <point x="144" y="1176" type="curve" smooth="yes"/>
      <point x="144" y="1384"/>
      <point x="314" y="1520"/>
      <point x="544" y="1520" type="curve" smooth="yes"/>
      <point x="700" y="1520"/>
      <point x="932" y="1470"/>
      <point x="932" y="1258" type="curve" smooth="yes"/>
      <point x="932" y="1156"/>
      <point x="862" y="1074"/>
      <point x="752" y="1074" type="curve" smooth="yes"/>
      <point x="652" y="1074"/>
      <point x="584" y="1154"/>
      <point x="584" y="1246" type="curve" smooth="yes"/>
      <point x="584" y="1330"/>
      <point x="660" y="1410"/>
      <point x="758" y="1410" type="curve" smooth="yes"/>
      <point x="810" y="1410"/>
      <point x="845" y="1387"/>
      <point x="860" y="1371" type="curve"/>
      <point x="788" y="1460"/>
      <point x="662" y="1490"/>
      <point x="544" y="1490" type="curve" smooth="yes"/>
      <point x="440" y="1490"/>
      <point x="330" y="1416"/>
    </contour>
    <contour>
      <point x="928" y="324" type="curve" smooth="yes"/>
      <point x="928" y="116"/>
      <point x="758" y="-20"/>
      <point x="488" y="-20" type="curve" smooth="yes"/>
      <point x="312" y="-20"/>
      <point x="60" y="50"/>
      <point x="60" y="242" type="curve" smooth="yes"/>
      <point x="60" y="344"/>
      <point x="130" y="426"/>
      <point x="240" y="426" type="curve" smooth="yes"/>
      <point x="340" y="426"/>
      <point x="408" y="346"/>
      <point x="408" y="254" type="curve" smooth="yes"/>
      <point x="408" y="170"/>
      <point x="337" y="98"/>
      <point x="239" y="98" type="curve" smooth="yes"/>
      <point x="180" y="98"/>
      <point x="146" y="128"/>
      <point x="135" y="144" type="curve"/>
      <point x="200" y="55"/>
      <point x="343" y="10"/>
      <point x="488" y="10" type="curve" smooth="yes"/>
      <point x="654" y="10"/>
      <point x="742" y="104"/>
      <point x="742" y="182" type="curve" smooth="yes"/>
      <point x="742" y="394"/>
      <point x="116" y="384"/>
      <point x="116" y="690" type="curve" smooth="yes"/>
      <point x="116" y="854"/>
      <point x="234" y="928"/>
      <point x="322" y="980" type="curve"/>
      <point x="348" y="980" type="line"/>
      <point x="327" y="956"/>
      <point x="283" y="929"/>
      <point x="283" y="861" type="curve" smooth="yes"/>
      <point x="283" y="679"/>
      <point x="928" y="688"/>
    </contour>
  </outline>
</glyph>
<glyph name="copyright" format="2">
  <advance width="1739"/>
  <unicode hex="00A9"/>
  <outline>
    <contour>
      <point x="100" y="750" type="curve" smooth="yes"/>
      <point x="100" y="1176"/>
      <point x="444" y="1520"/>
      <point x="870" y="1520" type="curve" smooth="yes"/>
      <point x="1296" y="1520"/>
      <point x="1640" y="1176"/>
      <point x="1640" y="750" type="curve" smooth="yes"/>
      <point x="1640" y="324"/>
      <point x="1296" y="-20"/>
      <point x="870" y="-20" type="curve" smooth="yes"/>
      <point x="444" y="-20"/>
      <point x="100" y="324"/>
    </contour>
    <contour>
      <point x="127" y="750" type="curve" smooth="yes"/>
      <point x="127" y="340"/>
      <point x="460" y="7"/>
      <point x="870" y="7" type="curve" smooth="yes"/>
      <point x="1280" y="7"/>
      <point x="1613" y="340"/>
      <point x="1613" y="750" type="curve" smooth="yes"/>
      <point x="1613" y="1160"/>
      <point x="1280" y="1493"/>
      <point x="870" y="1493" type="curve" smooth="yes"/>
      <point x="460" y="1493"/>
      <point x="127" y="1160"/>
    </contour>
    <component base="C" xScale="0.6" yScale="0.6" xOffset="380" yOffset="300"/>
  </outline>
</glyph>
<glyph name="guillemotleft" format="2">
  <advance width="3092"/>
  <unicode hex="00AB"/>
  <outline>
    <contour>
      <point x="2256" y="1590" type="line"/>
      <point x="2874" y="622" type="line"/>
      <point x="2846" y="594" type="line"/>
      <point x="1250" y="1563" type="line"/>
      <point x="1250" y="1611" type="line"/>
      <point x="2846" y="2580" type="line"/>
      <point x="2874" y="2553" type="line"/>
    </contour>
    <contour>
      <point x="1028" y="1590" type="line"/>
      <point x="1728" y="622" type="line"/>
      <point x="1700" y="594" type="line"/>
      <point x="102" y="1563" type="line"/>
      <point x="102" y="1611" type="line"/>
      <point x="1700" y="2580" type="line"/>
      <point x="1728" y="2553" type="line"/>
    </contour>
  </outline>
</glyph>
<glyph name="registered" format="2">
  <advance width="3562"/>
  <unicode hex="00AE"/>
  <outline>
    <contour>
      <point x="204" y="1536" type="curve" smooth="yes"/>
      <point x="204" y="2408"/>
      <point x="910" y="3112"/>
      <point x="1782" y="3112" type="curve" smooth="yes"/>
      <point x="2654" y="3112"/>
      <point x="3358" y="2408"/>
      <point x="3358" y="1536" type="curve" smooth="yes"/>
      <point x="3358" y="664"/>
      <point x="2654" y="-40"/>
      <point x="1782" y="-40" type="curve" smooth="yes"/>
      <point x="910" y="-40"/>
      <point x="204" y="664"/>
    </contour>
    <contour>
      <point x="260" y="1536" type="curve" smooth="yes"/>
      <point x="260" y="697"/>
      <point x="943" y="15"/>
      <point x="1782" y="15" type="curve" smooth="yes"/>
      <point x="2621" y="15"/>
      <point x="3303" y="697"/>
      <point x="3303" y="1536" type="curve" smooth="yes"/>
      <point x="3303" y="2375"/>
      <point x="2621" y="3057"/>
      <point x="1782" y="3057" type="curve" smooth="yes"/>
      <point x="943" y="3057"/>
      <point x="260" y="2375"/>
    </contour>
    <component base="R" xScale="0.6" yScale="0.6" xOffset="852" yOffset="606"/>
  </outline>
</glyph>
<glyph name="degree" format="2">
  <advance width="639"/>
  <unicode hex="00B0"/>
  <outline>
    <contour>
      <point x="80" y="1360" type="curve" smooth="yes"/>
      <point x="80" y="1492"/>
      <point x="188" y="1600"/>
      <point x="320" y="1600" type="curve" smooth="yes"/>
      <point x="452" y="1600"/>
      <point x="560" y="1492"/>
      <point x="560" y="1360" type="curve" smooth="yes"/>
      <point x="560" y="1228"/>
      <point x="452" y="1120"/>
      <point x="320" y="1120" type="curve" smooth="yes"/>
      <point x="188" y="1120"/>
      <point x="80" y="1228"/>
    </contour>
    <contour>
      <point x="144" y="1360" type="curve" smooth="yes"/>
      <point x="144" y="1259"/>
      <point x="219" y="1184"/>
      <point x="320" y="1184" type="curve" smooth="yes"/>
      <point x="421" y="1184"/>
      <point x="496" y="1259"/>
      <point x="496" y="1360" type="curve" smooth="yes"/>
      <point x="496" y="1461"/>
      <point x="421" y="1536"/>
      <point x="320" y="1536" type="curve" smooth="yes"/>
      <point x="219" y="1536"/>
      <point x="144" y="1461"/>
    </contour>
  </outline>
</glyph>
<glyph name="acute" format="2">
  <advance width="849"/>
  <unicode hex="00B4"/>
  <outline>
    <contour>
      <point x="550" y="1360" type="curve" smooth="yes"/>
      <point x="120" y="1446" type="line"/>
      <point x="115" y="1474" type="line"/>
      <point x="530" y="1656" type="line" smooth="yes"/>
      <point x="629" y="1699"/>
      <point x="740" y="1608"/>
      <point x="740" y="1510" type="curve" smooth="yes"/>
      <point x="740" y="1412"/>
      <point x="647" y="1340"/>
    </contour>
  </outline>
</glyph>
<glyph name="mu" format="2">
  <advance width="2708"/>
  <unicode hex="00B5"/>
  <outline>
    <contour>
      <point x="1012" y="-504" type="curve" smooth="yes"/>
      <point x="1148" y="-504"/>
      <point x="1254" y="-622"/>
      <point x="1254" y="-778" type="curve" smooth="yes"/>
      <point x="1254" y="-938"/>
      <point x="1168" y="-1064"/>
      <point x="868" y="-1064" type="curve" smooth="yes"/>
      <point x="582" y="-1064"/>
      <point x="336" y="-864"/>
      <point x="336" y="-496" type="curve" smooth="yes"/>
      <point x="336" y="1314" type="line"/>
      <point x="392" y="1314" type="line"/>
      <point x="392" y="-496" type="line" smooth="yes"/>
      <point x="392" y="-841"/>
      <point x="616" y="-1034"/>
      <point x="932" y="-1009" type="curve"/>
      <point x="932" y="-1009" type="line"/>
      <point x="830" y="-956"/>
      <point x="767" y="-877"/>
      <point x="767" y="-748" type="curve" smooth="yes"/>
      <point x="767" y="-612"/>
      <point x="876" y="-504"/>
    </contour>
    <component base="u"/>
  </outline>
</glyph>
<glyph name="cedilla" format="2">
  <advance width="2252"/>
  <unicode hex="00B8"/>
  <outline>
    <contour>
      <point x="1184" y="-574" type="curve" smooth="yes"/>
      <point x="1184" y="-356"/>
      <point x="1021" y="-324"/>
      <point x="877" y="-324" type="curve"/>
      <point x="1246" y="168" type="line"/>
      <point x="1316" y="168" type="line"/>
      <point x="1070" y="-160" type="line"/>
      <point x="1543" y="-172"/>
      <point x="1802" y="-262"/>
      <point x="1802" y="-492" type="curve" smooth="yes"/>
      <point x="1802" y="-696"/>
      <point x="1606" y="-902"/>
      <point x="864" y="-902" type="curve"/>
      <point x="864" y="-845" type="line"/>
      <point x="1106" y="-845"/>
      <point x="1184" y="-740"/>
    </contour>
  </outline>
</glyph>
<glyph name="AE" format="2">
  <advance width="2190"/>
  <unicode hex="00C6"/>
  <outline>
    <contour>
      <point x="1039" y="1500" type="line"/>
      <point x="1069" y="1500" type="line"/>
      <point x="219" y="0" type="line"/>
      <point x="185" y="0" type="line"/>
    </contour>
    <contour>
      <point x="30" y="27" type="line"/>
      <point x="470" y="27" type="line"/>
      <point x="470" y="0" type="line"/>
      <point x="30" y="0" type="line"/>
    </contour>
    <contour>
      <point x="490" y="503" type="line"/>
      <point x="1070" y="503" type="line"/>
      <point x="1070" y="477" type="line"/>
      <point x="479" y="477" type="line"/>
    </contour>
    <contour>
      <point x="1050" y="1500" type="line"/>
      <point x="1480" y="1500" type="line"/>
      <point x="1480" y="0" type="line"/>
      <point x="1050" y="0" type="line"/>
    </contour>
    <contour>
      <point x="1050" y="1500" type="line"/>
      <point x="2111" y="1500" type="line"/>
      <point x="2111" y="1090" type="line"/>
      <point x="2084" y="1090" type="line"/>
      <point x="2024" y="1304"/>
      <point x="1834" y="1473"/>
      <point x="1620" y="1473" type="curve" smooth="yes"/>
      <point x="1050" y="1473" type="line"/>
    </contour>
    <contour>
      <point x="2131" y="0" type="line"/>
      <point x="870" y="0" type="line"/>
      <point x="870" y="27" type="line"/>
      <point x="1600" y="27" type="line" smooth="yes"/>
      <point x="1854" y="27"/>
      <point x="2044" y="196"/>
      <point x="2104" y="450" type="curve"/>
      <point x="2131" y="450" type="line"/>
    </contour>
    <contour>
      <point x="1804" y="496" type="line"/>
      <point x="1744" y="630"/>
      <point x="1614" y="763"/>
      <point x="1500" y="763" type="curve" smooth="yes"/>
      <point x="1380" y="763" type="line"/>
      <point x="1380" y="790" type="line"/>
      <point x="1500" y="790" type="line" smooth="yes"/>
      <point x="1614" y="790"/>
      <point x="1744" y="912"/>
      <point x="1804" y="1046" type="curve"/>
      <point x="1831" y="1046" type="line"/>
      <point x="1831" y="496" type="line"/>
    </contour>
  </outline>
</glyph>
<glyph name="eth" format="2">
  <advance width="1319"/>
  <unicode hex="00F0"/>
  <outline>
    <contour>
      <point x="300" y="1260" type="line"/>
      <point x="1240" y="1260" type="line"/>
      <point x="1240" y="1233" type="line"/>
      <point x="300" y="1233" type="line"/>
    </contour>
    <contour>
      <point x="1220" y="620" type="curve" smooth="yes"/>
      <point x="1220" y="200"/>
      <point x="974" y="-20"/>
      <point x="632" y="-20" type="curve" smooth="yes"/>
      <point x="290" y="-20"/>
      <point x="60" y="200"/>
      <point x="60" y="500" type="curve" smooth="yes"/>
      <point x="60" y="840"/>
      <point x="316" y="990"/>
      <point x="558" y="990" type="curve" smooth="yes"/>
      <point x="740" y="990"/>
      <point x="783" y="814"/>
      <point x="783" y="560" type="curve"/>
      <point x="760" y="560" type="line"/>
      <point x="760" y="860"/>
      <point x="695" y="938"/>
      <point x="629" y="938" type="curve" smooth="yes"/>
      <point x="551" y="938"/>
      <point x="520" y="868"/>
      <point x="520" y="500" type="curve" smooth="yes"/>
      <point x="520" y="172"/>
      <point x="528" y="7"/>
      <point x="626" y="7" type="curve" smooth="yes"/>
      <point x="724" y="7"/>
      <point x="760" y="192"/>
      <point x="760" y="560" type="curve"/>
      <point x="765" y="687" type="line"/>
      <point x="765" y="1031"/>
      <point x="578" y="1495"/>
      <point x="210" y="1495" type="curve"/>
      <point x="210" y="1520" type="line"/>
      <point x="794" y="1520"/>
      <point x="1220" y="1142"/>
    </contour>
  </outline>
</glyph>
<glyph name="thorn" format="2">
  <advance width="1345"/>
  <unicode hex="00FE"/>
  <outline>
    <contour>
      <point x="526" y="460" type="curve" smooth="yes"/>
      <point x="526" y="764"/>
      <point x="649" y="938"/>
      <point x="862" y="938" type="curve" smooth="yes"/>
      <point x="1080" y="938"/>
      <point x="1286" y="760"/>
      <point x="1286" y="460" type="curve" smooth="yes"/>
      <point x="1286" y="160"/>
      <point x="1080" y="-20"/>
      <point x="862" y="-20" type="curve" smooth="yes"/>
      <point x="651" y="-20"/>
      <point x="526" y="156"/>
    </contour>
    <contour>
      <point x="550" y="460" type="curve" smooth="yes"/>
      <point x="550" y="176"/>
      <point x="672" y="39"/>
      <point x="764" y="39" type="curve" smooth="yes"/>
      <point x="832" y="39"/>
      <point x="856" y="157"/>
      <point x="856" y="460" type="curve" smooth="yes"/>
      <point x="856" y="763"/>
      <point x="832" y="879"/>
      <point x="764" y="879" type="curve" smooth="yes"/>
      <point x="672" y="879"/>
      <point x="550" y="743"/>
    </contour>
    <contour>
      <point x="30" y="-473" type="line"/>
      <point x="690" y="-473" type="line"/>
      <point x="690" y="-500" type="line"/>
      <point x="30" y="-500" type="line"/>
    </contour>
    <contour>
      <point x="170" y="1473" type="line"/>
      <point x="30" y="1473" type="line"/>
      <point x="30" y="1500" type="line"/>
      <point x="550" y="1500" type="line"/>
      <point x="550" y="-500" type="line"/>
      <point x="170" y="-500" type="line"/>
    </contour>
  </outline>
</glyph>
<glyph name="kgreenlandic" format="2">
  <advance width="1391"/>
  <unicode hex="0138"/>
  <outline>
    <contour>
      <point x="1306" y="0" type="line"/>
      <point x="840" y="0" type="line"/>
      <point x="494" y="542" type="line"/>
      <point x="1078" y="920" type="line"/>
      <point x="1117" y="920" type="line"/>
      <point x="800" y="711" type="line"/>
    </contour>
    <contour>
      <point x="728" y="27" type="line"/>
      <point x="1382" y="27" type="line"/>
      <point x="1382" y="0" type="line"/>
      <point x="728" y="0" type="line"/>
    </contour>
    <contour>
      <point x="1254" y="893" type="line"/>
      <point x="808" y="893" type="line"/>
      <point x="808" y="920" type="line"/>
      <point x="1254" y="920" type="line"/>
    </contour>
    <contour>
      <point x="30" y="27" type="line"/>
      <point x="670" y="27" type="line"/>
      <point x="670" y="0" type="line"/>
      <point x="30" y="0" type="line"/>
    </contour>
    <contour>
      <point x="210" y="893" type="line"/>
      <point x="30" y="893" type="line"/>
      <point x="30" y="920" type="line"/>
      <point x="590" y="920" type="line"/>
      <point x="590" y="0" type="line"/>
      <point x="210" y="0" type="line"/>
    </contour>
  </outline>
</glyph>
<glyph name="lslash" format="2">
  <advance width="792"/>
  <unicode hex="0142"/>
  <outline>
    <contour>
      <point x="23" y="720" type="line"/>
      <point x="793" y="1160" type="line"/>
      <point x="793" y="1129" type="line"/>
      <point x="23" y="689" type="line"/>
    </contour>
    <component base="l"/>
  </outline>
</glyph>
<glyph name="uni0237" format="2">
  <advance width="726"/>
  <unicode hex="0237"/>
  <outline>
    <contour>
      <point x="586" y="920" type="line"/>
      <point x="586" y="-24" type="line" smooth="yes"/>
      <point x="586" y="-286"/>
      <point x="333" y="-520"/>
      <point x="33" y="-520" type="curve" smooth="yes"/>
      <point x="-169" y="-520"/>
      <point x="-333" y="-418"/>
      <point x="-333" y="-268" type="curve" smooth="yes"/>
      <point x="-333" y="-148"/>
      <point x="-234" y="-58"/>
      <point x="-120" y="-58" type="curve" smooth="yes"/>
      <point x="-10" y="-58"/>
      <point x="93" y="-126"/>
      <point x="93" y="-246" type="curve" smooth="yes"/>
      <point x="93" y="-356"/>
      <point x="8" y="-438"/>
      <point x="-130" y="-438" type="curve" smooth="yes"/>
      <point x="-177" y="-438"/>
      <point x="-192" y="-433"/>
      <point x="-215" y="-424" type="curve"/>
      <point x="-169" y="-452"/>
      <point x="-107" y="-485"/>
      <point x="-6" y="-485" type="curve" smooth="yes"/>
      <point x="234" y="-485"/>
      <point x="203" y="-212"/>
      <point x="203" y="42" type="curve" smooth="yes"/>
      <point x="207" y="893" type="line"/>
      <point x="26" y="893" type="line"/>
      <point x="26" y="920" type="line"/>
    </contour>
  </outline>
</glyph>
<glyph name="caron" format="2">
  <advance width="929"/>
  <unicode hex="02C7"/>
  <outline>
    <contour>
      <point x="466" y="1430" type="line"/>
      <point x="816" y="1573" type="line"/>
      <point x="830" y="1560" type="line"/>
      <point x="570" y="1240" type="line"/>
      <point x="360" y="1240" type="line"/>
      <point x="100" y="1560" type="line"/>
      <point x="113" y="1573" type="line"/>
    </contour>
  </outline>
</glyph>
<glyph name="ogonek" format="2">
  <advance width="1099"/>
  <unicode hex="02DB"/>
  <outline>
    <contour>
      <point x="826" y="-266" type="line"/>
      <point x="796" y="-322"/>
      <point x="758" y="-412"/>
      <point x="556" y="-412" type="curve" smooth="yes"/>
      <point x="394" y="-412"/>
      <point x="280" y="-360"/>
      <point x="280" y="-240" type="curve" smooth="yes"/>
      <point x="280" y="-80"/>
      <point x="513" y="46"/>
      <point x="695" y="96" type="curve"/>
      <point x="702" y="76" type="line"/>
      <point x="680" y="62"/>
      <point x="626" y="-23"/>
      <point x="626" y="-163" type="curve" smooth="yes"/>
      <point x="626" y="-288"/>
      <point x="668" y="-339"/>
      <point x="716" y="-339" type="curve" smooth="yes"/>
      <point x="756" y="-339"/>
      <point x="778" y="-304"/>
      <point x="804" y="-255" type="curve"/>
    </contour>
  </outline>
</glyph>
<glyph name="pi" format="2">
  <advance width="2788"/>
  <unicode hex="03C0"/>
  <outline>
    <contour>
      <point x="2646" y="422" type="line"/>
      <point x="2552" y="136"/>
      <point x="2378" y="-40"/>
      <point x="1998" y="-40" type="curve" smooth="yes"/>
      <point x="1642" y="-40"/>
      <point x="1418" y="98"/>
      <point x="1418" y="380" type="curve" smooth="yes"/>
      <point x="1418" y="1720" type="line"/>
      <point x="2196" y="1720" type="line"/>
      <point x="2196" y="341" type="line" smooth="yes"/>
      <point x="2196" y="259"/>
      <point x="2232" y="174"/>
      <point x="2358" y="174" type="curve" smooth="yes"/>
      <point x="2451" y="174"/>
      <point x="2525" y="244"/>
      <point x="2603" y="446" type="curve"/>
    </contour>
    <contour>
      <point x="590" y="-40" type="curve" smooth="yes"/>
      <point x="340" y="-40"/>
      <point x="144" y="94"/>
      <point x="144" y="320" type="curve" smooth="yes"/>
      <point x="144" y="804"/>
      <point x="970" y="540"/>
      <point x="970" y="1142" type="curve" smooth="yes"/>
      <point x="970" y="1844" type="line"/>
      <point x="1200" y="1844" type="line"/>
      <point x="1200" y="996" type="line" smooth="yes"/>
      <point x="1200" y="348"/>
      <point x="992" y="-40"/>
    </contour>
    <contour>
      <point x="2564" y="1884" type="line"/>
      <point x="2564" y="1106" type="line"/>
      <point x="224" y="1106" type="line"/>
      <point x="224" y="798" type="line"/>
      <point x="168" y="798" type="line"/>
      <point x="168" y="1884" type="line"/>
    </contour>
  </outline>
</glyph>
<glyph name="uniFB00" format="2">
  <advance width="1532"/>
  <unicode hex="FB00"/>
  <outline>
    <contour>
      <point x="17" y="27" type="line"/>
      <point x="1477" y="27" type="line"/>
      <point x="1477" y="0" type="line"/>
      <point x="17" y="0" type="line"/>
    </contour>
    <contour>
      <point x="17" y="920" type="line"/>
      <point x="1517" y="920" type="line"/>
      <point x="1517" y="893" type="line"/>
      <point x="17" y="893" type="line"/>
    </contour>
    <contour>
      <point x="1011" y="1293" type="curve"/>
      <point x="985" y="1340"/>
      <point x="899" y="1388"/>
      <point x="811" y="1388" type="curve" smooth="yes"/>
      <point x="651" y="1388"/>
      <point x="557" y="1234"/>
      <point x="557" y="980" type="curve" smooth="yes"/>
      <point x="557" y="0" type="line"/>
      <point x="197" y="0" type="line"/>
      <point x="197" y="924" type="line" smooth="yes"/>
      <point x="197" y="1226"/>
      <point x="451" y="1420"/>
      <point x="791" y="1420" type="curve" smooth="yes"/>
      <point x="973" y="1420"/>
      <point x="1117" y="1296"/>
      <point x="1117" y="1162" type="curve" smooth="yes"/>
      <point x="1117" y="1040"/>
      <point x="1042" y="958"/>
      <point x="922" y="958" type="curve" smooth="yes"/>
      <point x="812" y="958"/>
      <point x="710" y="1026"/>
      <point x="710" y="1146" type="curve" smooth="yes"/>
      <point x="710" y="1266"/>
      <point x="788" y="1344"/>
      <point x="896" y="1344" type="curve" smooth="yes"/>
      <point x="965" y="1344"/>
      <point x="1011" y="1293"/>
    </contour>
    <contour>
      <point x="1669" y="1406" type="curve"/>
      <point x="1646" y="1445"/>
      <point x="1562" y="1490"/>
      <point x="1471" y="1490" type="curve" smooth="yes"/>
      <point x="1311" y="1490"/>
      <point x="1237" y="1334"/>
      <point x="1237" y="1080" type="curve" smooth="yes"/>
      <point x="1237" y="0" type="line"/>
      <point x="876" y="0" type="line"/>
      <point x="876" y="1024" type="line" smooth="yes"/>
      <point x="876" y="1326"/>
      <point x="1131" y="1520"/>
      <point x="1451" y="1520" type="curve" smooth="yes"/>
      <point x="1633" y="1520"/>
      <point x="1756" y="1396"/>
      <point x="1756" y="1262" type="curve" smooth="yes"/>
      <point x="1756" y="1140"/>
      <point x="1682" y="1058"/>
      <point x="1562" y="1058" type="curve" smooth="yes"/>
      <point x="1452" y="1058"/>
      <point x="1351" y="1126"/>
      <point x="1351" y="1246" type="curve" smooth="yes"/>
      <point x="1351" y="1366"/>
      <point x="1435" y="1444"/>
      <point x="1543" y="1444" type="curve" smooth="yes"/>
      <point x="1604" y="1444"/>
      <point x="1647" y="1427"/>
    </contour>
  </outline>
</glyph>
<glyph name="uniFB01" format="2">
  <advance width="1382"/>
  <unicode hex="FB01"/>
  <outline>
    <contour>
      <point x="197" y="1024" type="line" smooth="yes"/>
      <point x="197" y="1346"/>
      <point x="451" y="1520"/>
      <point x="851" y="1520" type="curve" smooth="yes"/>
      <point x="1073" y="1520"/>
      <point x="1217" y="1396"/>
      <point x="1217" y="1262" type="curve" smooth="yes"/>
      <point x="1217" y="1140"/>
      <point x="1142" y="1058"/>
      <point x="1022" y="1058" type="curve" smooth="yes"/>
      <point x="912" y="1058"/>
      <point x="811" y="1126"/>
      <point x="811" y="1246" type="curve" smooth="yes"/>
      <point x="811" y="1366"/>
      <point x="894" y="1440"/>
      <point x="1002" y="1440" type="curve" smooth="yes"/>
      <point x="1063" y="1440"/>
      <point x="1080" y="1427"/>
      <point x="1114" y="1407" type="curve"/>
      <point x="1071" y="1447"/>
      <point x="986" y="1491"/>
      <point x="851" y="1491" type="curve" smooth="yes"/>
      <point x="631" y="1491"/>
      <point x="557" y="1334"/>
      <point x="557" y="1080" type="curve" smooth="yes"/>
      <point x="557" y="0" type="line"/>
      <point x="197" y="0" type="line"/>
    </contour>
    <contour>
      <point x="17" y="27" type="line"/>
      <point x="1356" y="27" type="line"/>
      <point x="1356" y="0" type="line"/>
      <point x="17" y="0" type="line"/>
    </contour>
    <contour>
      <point x="836" y="893" type="line"/>
      <point x="17" y="893" type="line"/>
      <point x="17" y="920" type="line"/>
      <point x="1217" y="920" type="line"/>
      <point x="1217" y="0" type="line"/>
      <point x="836" y="0" type="line"/>
    </contour>
  </outline>
</glyph>
<glyph name="uniFB02" format="2">
  <advance width="1552"/>
  <unicode hex="FB02"/>
  <outline>
    <contour>
      <point x="17" y="27" type="line"/>
      <point x="1526" y="27" type="line"/>
      <point x="1526" y="0" type="line"/>
      <point x="17" y="0" type="line"/>
    </contour>
    <contour>
      <point x="17" y="920" type="line"/>
      <point x="836" y="920" type="line"/>
      <point x="836" y="893" type="line"/>
      <point x="17" y="893" type="line"/>
    </contour>
    <contour>
      <point x="967" y="1460" type="line"/>
      <point x="1347" y="1540" type="line"/>
      <point x="1347" y="0" type="line"/>
      <point x="967" y="0" type="line"/>
    </contour>
    <contour>
      <point x="992" y="1384" type="curve"/>
      <point x="967" y="1430"/>
      <point x="893" y="1491"/>
      <point x="791" y="1491" type="curve" smooth="yes"/>
      <point x="631" y="1491"/>
      <point x="557" y="1334"/>
      <point x="557" y="1080" type="curve" smooth="yes"/>
      <point x="557" y="0" type="line"/>
      <point x="197" y="0" type="line"/>
      <point x="197" y="1024" type="line" smooth="yes"/>
      <point x="197" y="1326"/>
      <point x="451" y="1520"/>
      <point x="771" y="1520" type="curve" smooth="yes"/>
      <point x="953" y="1520"/>
      <point x="1077" y="1396"/>
      <point x="1077" y="1262" type="curve" smooth="yes"/>
      <point x="1077" y="1140"/>
      <point x="1003" y="1058"/>
      <point x="883" y="1058" type="curve" smooth="yes"/>
      <point x="773" y="1058"/>
      <point x="670" y="1126"/>
      <point x="670" y="1246" type="curve" smooth="yes"/>
      <point x="670" y="1366"/>
      <point x="748" y="1444"/>
      <point x="856" y="1444" type="curve" smooth="yes"/>
      <point x="939" y="1444"/>
      <point x="992" y="1384"/>
    </contour>
  </outline>
</glyph>
<glyph name="uniFB03" format="2">
  <advance width="4141"/>
  <unicode hex="FB03"/>
  <outline>
    <contour>
      <point x="1713" y="2097" type="line" smooth="yes"/>
      <point x="1713" y="2756"/>
      <point x="2234" y="3113"/>
      <point x="3053" y="3113" type="curve" smooth="yes"/>
      <point x="3508" y="3113"/>
      <point x="3802" y="2859"/>
      <point x="3802" y="2585" type="curve" smooth="yes"/>
      <point x="3802" y="2335"/>
      <point x="3651" y="2167"/>
      <point x="3405" y="2167" type="curve" smooth="yes"/>
      <point x="3180" y="2167"/>
      <point x="2971" y="2306"/>
      <point x="2971" y="2552" type="curve" smooth="yes"/>
      <point x="2971" y="2798"/>
      <point x="3138" y="2949"/>
      <point x="3359" y="2949" type="curve" smooth="yes"/>
      <point x="3504" y="2949"/>
      <point x="3556" y="2908"/>
      <point x="3602" y="2881" type="curve"/>
      <point x="3492" y="2971"/>
      <point x="3331" y="3052"/>
      <point x="3053" y="3052" type="curve" smooth="yes"/>
      <point x="2602" y="3052"/>
      <point x="2451" y="2732"/>
      <point x="2451" y="2212" type="curve" smooth="yes"/>
      <point x="2451" y="0" type="line"/>
      <point x="1713" y="0" type="line"/>
    </contour>
    <contour>
      <point x="34" y="56" type="line"/>
      <point x="4089" y="56" type="line"/>
      <point x="4089" y="0" type="line"/>
      <point x="34" y="0" type="line"/>
    </contour>
    <contour>
      <point x="403" y="1892" type="line" smooth="yes"/>
      <point x="403" y="2506"/>
      <point x="923" y="2908"/>
      <point x="1619" y="2908" type="curve" smooth="yes"/>
      <point x="1992" y="2908"/>
      <point x="2287" y="2654"/>
      <point x="2287" y="2380" type="curve" smooth="yes"/>
      <point x="2287" y="2130"/>
      <point x="2135" y="1962"/>
      <point x="1889" y="1962" type="curve" smooth="yes"/>
      <point x="1664" y="1962"/>
      <point x="1455" y="2101"/>
      <point x="1455" y="2347" type="curve" smooth="yes"/>
      <point x="1455" y="2593"/>
      <point x="1615" y="2753"/>
      <point x="1836" y="2753" type="curve" smooth="yes"/>
      <point x="1977" y="2753"/>
      <point x="2057" y="2676"/>
      <point x="2057" y="2676" type="curve"/>
      <point x="1990" y="2760"/>
      <point x="1843" y="2841"/>
      <point x="1660" y="2841" type="curve" smooth="yes"/>
      <point x="1332" y="2841"/>
      <point x="1140" y="2527"/>
      <point x="1140" y="2007" type="curve" smooth="yes"/>
      <point x="1140" y="0" type="line"/>
      <point x="403" y="0" type="line"/>
    </contour>
    <contour>
      <point x="3024" y="1828" type="line"/>
      <point x="34" y="1828" type="line"/>
      <point x="34" y="1884" type="line"/>
      <point x="3802" y="1884" type="line"/>
      <point x="3802" y="0" type="line"/>
      <point x="3024" y="0" type="line"/>
    </contour>
  </outline>
</glyph>
<glyph name="J.alt" format="2">
  <advance width="1451"/>
  <outline>
    <contour>
      <point x="532" y="1500" type="line"/>
      <point x="1422" y="1500" type="line"/>
      <point x="1422" y="1473" type="line"/>
      <point x="532" y="1473" type="line"/>
    </contour>
    <contour>
      <point x="792" y="1500" type="line"/>
      <point x="1222" y="1500" type="line"/>
      <point x="1222" y="340" type="line"/>
      <point x="1102" y="100"/>
      <point x="924" y="-60"/>
      <point x="542" y="-60" type="curve" smooth="yes"/>
      <point x="248" y="-60"/>
      <point x="30" y="150"/>
      <point x="30" y="370" type="curve" smooth="yes"/>
      <point x="30" y="554"/>
      <point x="164" y="660"/>
      <point x="304" y="660" type="curve" smooth="yes"/>
      <point x="434" y="660"/>
      <point x="536" y="564"/>
      <point x="536" y="422" type="curve" smooth="yes"/>
      <point x="536" y="292"/>
      <point x="436" y="184"/>
      <point x="290" y="184" type="curve" smooth="yes"/>
      <point x="189" y="184"/>
      <point x="117" y="231"/>
      <point x="73" y="281" type="curve"/>
      <point x="121" y="115"/>
      <point x="306" y="-27"/>
      <point x="502" y="-27" type="curve" smooth="yes"/>
      <point x="684" y="-27"/>
      <point x="792" y="100"/>
      <point x="792" y="380" type="curve" smooth="yes"/>
    </contour>
  </outline>
</glyph>
<glyph name="fj.lig" format="2">
  <advance width="1353"/>
  <outline>
    <contour>
      <point x="20" y="27" type="line"/>
      <point x="740" y="27" type="line"/>
      <point x="740" y="0" type="line"/>
      <point x="20" y="0" type="line"/>
    </contour>
    <contour>
      <point x="1220" y="-24" type="line" smooth="yes"/>
      <point x="1220" y="-286"/>
      <point x="966" y="-520"/>
      <point x="666" y="-520" type="curve" smooth="yes"/>
      <point x="464" y="-520"/>
      <point x="300" y="-426"/>
      <point x="300" y="-272" type="curve" smooth="yes"/>
      <point x="300" y="-150"/>
      <point x="394" y="-58"/>
      <point x="514" y="-58" type="curve" smooth="yes"/>
      <point x="624" y="-58"/>
      <point x="726" y="-126"/>
      <point x="726" y="-246" type="curve" smooth="yes"/>
      <point x="726" y="-366"/>
      <point x="641" y="-438"/>
      <point x="507" y="-438" type="curve" smooth="yes"/>
      <point x="465" y="-438"/>
      <point x="436" y="-430"/>
      <point x="400" y="-409" type="curve"/>
      <point x="429" y="-444"/>
      <point x="520" y="-486"/>
      <point x="636" y="-486" type="curve" smooth="yes"/>
      <point x="876" y="-486"/>
      <point x="840" y="-214"/>
      <point x="840" y="40" type="curve" smooth="yes"/>
      <point x="840" y="893" type="line"/>
      <point x="20" y="893" type="line"/>
      <point x="20" y="920" type="line"/>
      <point x="1220" y="920" type="line"/>
    </contour>
    <contour>
      <point x="1108" y="1418" type="curve"/>
      <point x="1063" y="1454"/>
      <point x="989" y="1490"/>
      <point x="854" y="1490" type="curve" smooth="yes"/>
      <point x="634" y="1490"/>
      <point x="560" y="1334"/>
      <point x="560" y="1080" type="curve" smooth="yes"/>
      <point x="560" y="0" type="line"/>
      <point x="200" y="0" type="line"/>
      <point x="200" y="1024" type="line" smooth="yes"/>
      <point x="200" y="1346"/>
      <point x="454" y="1520"/>
      <point x="854" y="1520" type="curve" smooth="yes"/>
      <point x="1076" y="1520"/>
      <point x="1220" y="1396"/>
      <point x="1220" y="1262" type="curve" smooth="yes"/>
      <point x="1220" y="1140"/>
      <point x="1146" y="1058"/>
      <point x="1026" y="1058" type="curve" smooth="yes"/>
      <point x="916" y="1058"/>
      <point x="814" y="1126"/>
      <point x="814" y="1246" type="curve" smooth="yes"/>
      <point x="814" y="1366"/>
      <point x="897" y="1440"/>
      <point x="1005" y="1440" type="curve" smooth="yes"/>
      <point x="1061" y="1440"/>
      <point x="1086" y="1432"/>
    </contour>
  </outline>
</glyph>
